<?xml version="1.0" encoding="UTF-8"?>
<svg xmlns="http://www.w3.org/2000/svg" viewBox="0 0 24 16" width="24" height="16">
  <path d="M6,2 C3,2 1,4 1,7 L2,12 C2.4,14 4,15 5.5,14 L7,12.5 L17,12.5 L18.5,14 C20,15 21.6,14 22,12 L23,7 C23,4 21,2 18,2 Z" fill="none" stroke="#9CA8B7" stroke-width="1.2"/>
  <rect x="5" y="6"  width="1.5" height="4"   rx="0.4" fill="#9CA8B7"/>
  <rect x="3.5" y="7.5" width="4.5" height="1.5" rx="0.4" fill="#9CA8B7"/>
  <circle cx="16" cy="7"  r="1.1" fill="#9CA8B7"/>
  <circle cx="18.2" cy="9"  r="1.1" fill="#9CA8B7"/>
  <circle cx="13.8" cy="9"  r="1.1" fill="#9CA8B7"/>
  <circle cx="16"   cy="11" r="1.1" fill="#9CA8B7"/>
</svg>
