<?xml version="1.0" encoding="UTF-8" standalone="no"?>
<!-- Created with Inkscape (http://www.inkscape.org/) -->

<svg
   width="111"
   height="25.33"
   viewBox="31.33 -5 111 25.33"
   version="1.1"
   id="svg1"
   xml:space="preserve"
   xmlns="http://www.w3.org/2000/svg"
   xmlns:svg="http://www.w3.org/2000/svg"><defs
     id="defs1" /><path
     style="font-size:96px;font-family:'PF Stardust ExtraBold';-inkscape-font-specification:'PF Stardust ExtraBold, ';white-space:pre;fill:#2c0000;fill-opacity:0.284298;stroke:#2c0000;stroke-width:0.264583;stroke-linecap:square;stroke-linejoin:round;stroke-dasharray:none;stroke-dashoffset:0;stroke-opacity:0.619835"
     d="M 33.595359,-3.2824847 H 45.253562 V 4.2829449 H 36.571921 V 14.167614 H 33.595359 V 1.653648 h 8.68164 v -2.30683587 h -8.68164 z m 8.68164,14.8083987 h 2.976563 v 2.6417 h -2.976563 z m -6.945312,1.649511 h 8.185547 v 2.629298 H 35.331687 Z M 47.36196,-3.2700824 h 2.951758 V 19.091343 H 47.36196 V 9.2438823 h -3.323828 v -2.641699 h 3.323828 z m 3.472656,0 h 3.001368 V 19.091343 h -3.001368 z m 6.536036,-0.012401 h 16.879589 v 2.62929683 H 60.347215 V 1.653648 H 74.250241 V 4.2829449 H 60.347215 v 4.9485354 h -2.976563 z m 1.736329,11.5217777 h 15.14326 V 10.868591 H 59.106981 Z M 55.770749,14.775328 H 75.99897 v 2.6417 H 55.770749 Z M 79.53364,-3.2824847 H 96.413228 V 4.2829449 H 82.510202 V 8.2392923 H 96.413228 V 10.868589 H 79.53364 V 1.653648 H 93.436665 V -0.65318787 H 79.53364 Z m 6.957713,13.171289 h 2.951758 v 4.9113277 h 8.718849 v 2.629297 H 77.933736 v -2.629297 h 8.557617 z m 13.605367,-13.171289 h 13.40694 v 2.64169923 h -1.74873 V 6.5897803 h 1.74873 v 2.6417 h -13.40694 v -2.6417 h 1.73633 v -7.23056577 h -1.73633 z m 4.71289,2.64169923 V 6.5897803 h 3.96875 v -7.23056577 z m 10.77764,-2.65410163 h 2.97656 V 1.653648 h 1.76114 v 2.6292969 h -1.76114 v 4.9361334 h -2.97656 z m -12.1667,13.1712894 h 13.40693 v 2.6416987 h -13.40693 z m -1.73633,1.6495117 h 2.97657 v 5.92832 h -2.97657 z m 13.90303,0 h 2.97656 v 5.92832 h -2.97656 z m -12.1667,4.936132 h 13.40693 v 2.641701 h -13.40693 z m 20.58789,-19.7445307 h 8.18555 v 2.62929683 h -8.18555 z m -1.73633,1.6371093 h 2.97657 V 14.167614 h -2.97657 z m 8.68165,0 h 2.97656 V 14.167614 h -2.97656 z m -6.94532,14.8208004 h 8.18555 v 2.629298 h -8.18555 z M 138.14711,-3.25768 h 2.97657 v 22.386231 h -2.97657 z"
     id="path2"
     aria-label="레트로팡이" /><path
     style="font-size:96px;font-family:'PF Stardust ExtraBold';-inkscape-font-specification:'PF Stardust ExtraBold, ';white-space:pre;fill:#800000;fill-opacity:1;stroke:#000000;stroke-width:0.264583;stroke-dasharray:0.0661458, 0.0661458;stroke-dashoffset:0;stroke-opacity:1"
     d="M 32.545293,-3.8116513 H 44.203496 V 3.7537783 H 35.521855 V 13.638447 H 32.545293 V 1.1244814 h 8.68164 v -2.3068359 h -8.68164 z m 8.68164,14.8083983 h 2.976563 v 2.6417 h -2.976563 z m -6.945312,1.649511 h 8.185547 v 2.629298 H 34.281621 Z M 46.311894,-3.7992489 h 2.951758 V 18.562176 H 46.311894 V 8.7147153 H 42.988066 V 6.0730165 h 3.323828 z m 3.472657,0 h 3.001367 V 18.562176 h -3.001367 z m 6.536035,-0.012401 h 16.879589 v 2.6292968 H 59.297149 V 1.1244814 H 73.200175 V 3.7537783 H 59.297149 v 4.948535 h -2.976563 z m 1.736329,11.5217773 h 15.14326 v 2.6292967 h -15.14326 z m -3.336232,6.5360337 h 20.228221 v 2.6417 H 54.720683 Z M 78.483574,-3.8116513 H 95.363162 V 3.7537783 H 81.460136 v 3.956348 H 95.363162 V 10.339422 H 78.483574 V 1.1244814 H 92.386599 V -1.1823545 H 78.483574 Z m 6.957713,13.1712886 h 2.951758 v 4.9113277 h 8.718849 v 2.629297 H 76.88367 v -2.629297 h 8.557617 z M 99.046664,-3.8116513 h 13.406926 v 2.6416992 h -1.74873 v 7.2305663 h 1.74873 V 8.7023133 H 99.046664 V 6.0606142 h 1.736316 v -7.2305663 h -1.736316 z m 4.712886,2.6416992 v 7.2305663 h 3.96875 v -7.2305663 z m 10.77763,-2.6541015 h 2.97656 v 4.948535 h 1.76114 v 2.6292969 h -1.76114 v 4.936133 h -2.97656 z m -12.1667,13.1712889 h 13.40694 v 2.6416987 h -13.40694 z m -1.73632,1.6495117 h 2.97656 v 5.92832 h -2.97656 z m 13.90302,0 h 2.97656 v 5.92832 h -2.97656 z m -12.1667,4.936132 h 13.40694 v 2.641701 h -13.40694 z m 20.58789,-19.7445303 h 8.18555 v 2.6292968 h -8.18555 z m -1.73632,1.6371093 h 2.97656 v 15.812989 h -2.97656 z m 8.68164,0 h 2.97656 v 15.812989 h -2.97656 z m -6.94532,14.8208 h 8.18555 v 2.629298 h -8.18555 z m 14.13868,-16.4331046 h 2.97656 V 18.599385 h -2.97656 z"
     id="text2"
     aria-label="레트로팡이" /></svg>
