<?xml version="1.0" encoding="UTF-8"?>
<svg xmlns="http://www.w3.org/2000/svg" viewBox="0 0 299 47" width="299" height="47">
  <path d="M8.423716777279324 11.84375H17.298716777279324Q19.845591777279324 11.84375 21.858533661292782 12.75Q23.87147554530624 13.65625 25.178307948710263 15.3203125Q26.485140352114282 16.984375 26.960071419595735 19.21875Q27.451608468457664 21.53125 26.77240527372364 23.1875Q26.093202078989613 24.84375 24.3317254816226 25.671875L31.014058985063574 34.46875H25.826558985063574L19.79133909915121 26.4375H16.21321409915121L17.920308985063574 34.46875H13.232808985063574ZM18.71534220778425 22.625Q22.84034220778425 22.625 22.116321419595735 19.21875Q21.747668632949292 17.484375 20.52544984707388 16.5859375Q19.30323106119847 15.6875 17.24073106119847 15.6875H13.92823106119847L15.40284220778425 22.625Z" fill="#FFFFFF"/><path d="M28.642466777279324 11.84375H43.829966777279324L44.65362345375066 15.71875H34.15362345375066L35.32268454293578 21.21875H45.04143454293578L45.86509121940712 25.09375H36.14634121940712L37.31540230859224 30.59375H47.84665230859224L48.67030898506357 34.46875H33.45155898506357Z" fill="#FFFFFF"/><path d="M46.611216777279324 11.84375H65.14246677727932L65.96612345375067 15.71875H59.02862345375066L63.01405898506358 34.46875H58.35780898506358L54.37237345375066 15.71875H47.43487345375066Z" fill="#FFFFFF"/><path d="M68.04871677727932 11.84375H76.92371677727932Q79.47059177727932 11.84375 81.48353366129278 12.75Q83.49647554530624 13.65625 84.80330794871026 15.3203125Q86.11014035211429 16.984375 86.58507141959574 19.21875Q87.07660846845766 21.53125 86.39740527372363 23.1875Q85.7182020789896 24.84375 83.9567254816226 25.671875L90.63905898506357 34.46875H85.45155898506357L79.4163390991512 26.4375H75.8382140991512L77.54530898506357 34.46875H72.85780898506357ZM78.34034220778425 22.625Q82.46534220778425 22.625 81.74132141959574 19.21875Q81.37266863294928 17.484375 80.15044984707387 16.5859375Q78.92823106119846 15.6875 76.86573106119846 15.6875H73.55323106119847L75.02784220778425 22.625Z" fill="#FFFFFF"/><path d="M103.29923291058546 34.78125Q100.26798291058546 34.78125 97.56614644201308 33.390625Q94.8643099734407 32.0 92.92968840091885 29.3671875Q90.995066828397 26.734375 90.23451288117144 23.15625Q89.4706377376698 19.5625 90.28601616514794 16.9296875Q91.1013945926261 14.296875 93.21371872219177 12.9140625Q95.32604285175744 11.53125 98.35729285175744 11.53125Q101.37291785175744 11.53125 104.06528122219177 12.9140625Q106.7576445926261 14.296875 108.69226616514794 16.9296875Q110.6268877376698 19.5625 111.39076288117144 23.15625Q112.15463802467309 26.75 111.33925959719494 29.3828125Q110.5238811697168 32.015625 108.41936954015114 33.3984375Q106.31485791058546 34.78125 103.29923291058546 34.78125ZM99.24073106119846 15.6875Q97.47510606119846 15.6875 96.35474495452169 16.5546875Q95.23438384784491 17.421875 94.87266244752502 19.1015625Q94.51094104720514 20.78125 95.01576288117144 23.15625Q95.52058471513774 25.53125 96.59636331481786 27.2109375Q97.67214191449798 28.890625 99.1611558078212 29.7578125Q100.65016970114442 30.625 102.41579470114442 30.625Q104.18141970114442 30.625 105.2939683078212 29.7578125Q106.40651691449798 28.890625 106.76208641295591 27.21875Q107.11765591141383 25.546875 106.60951288117144 23.15625Q106.10136985092905 20.765625 105.03506434938697 19.09375Q103.96875884784491 17.421875 102.48755745452169 16.5546875Q101.00635606119846 15.6875 99.24073106119846 15.6875Z" fill="#FFFFFF"/><path d="M112.36121677727932 11.84375H121.23621677727932Q123.76746677727932 11.84375 125.79984534825911 12.8046875Q127.8322239192389 13.765625 129.1523411077473 15.4921875Q130.4724582962557 17.21875 130.95071056001325 19.46875Q131.4322840200469 21.734375 130.82271370855528 23.4609375Q130.21314339706367 25.1875 128.5641738699054 26.140625Q126.91520434274716 27.09375 124.35270434274716 27.09375H120.29020434274716L121.85780898506357 34.46875H117.17030898506357ZM122.79897484393238 23.3125Q124.83022484393238 23.3125 125.65624029157212 22.2734375Q126.48225573921187 21.234375 126.10696056001323 19.46875Q125.7349865770907 17.71875 124.47223381914458 16.703125Q123.20948106119846 15.6875 121.17823106119846 15.6875H117.86573106119847L119.48647484393238 23.3125Z" fill="#FFFFFF"/><path d="M135.82655898506357 34.46875 138.8612167772793 11.84375H144.8924667772793L157.51405898506357 34.46875H152.48280898506357L149.67040442884814 29.25H141.48290442884814L140.88905898506357 34.46875ZM147.70574450024213 25.59375 143.037676763286 16.9375H142.881426763286L141.89324450024213 25.59375Z" fill="#FFFFFF"/><path d="M178.95155898506357 34.46875H174.88905898506357L161.896058411057 20.09375H161.708558411057L164.76405898506357 34.46875H160.07655898506357L155.2674667772793 11.84375H159.3924667772793L172.32296735128588 26.21875H172.54171735128588L169.4862167772793 11.84375H174.1424667772793Z" fill="#FFFFFF"/><path d="M188.99073106119846 15.6875Q187.24073106119846 15.6875 186.09859305265974 16.5625Q184.95645504412101 17.4375 184.57910864380113 19.1171875Q184.20176224348123 20.796875 184.69662048861926 23.125Q185.19812112630947 25.484375 186.28337282412764 27.171875Q187.36862452194578 28.859375 188.8843971115451 29.7421875Q190.40016970114442 30.625 192.19704470114442 30.625Q193.79079470114442 30.625 194.833633537067 30.0546875Q195.87647237298955 29.484375 196.28344352621514 28.421875Q196.69041467944075 27.359375 196.4194358183162 25.9375H191.5131858183162L190.76259545991894 22.40625H200.20009545991894L200.79791078961586 25.21875Q201.41897449324546 28.140625 200.6367726774845 30.3046875Q199.85457086172352 32.46875 197.88158938615447 33.625Q195.90860791058546 34.78125 193.04923291058546 34.78125Q189.89298291058546 34.78125 187.17835214759896 33.3671875Q184.46372138461243 31.953125 182.57148350836667 29.3359375Q180.6792456321209 26.71875 179.92865527372362 23.1875Q179.1681013264981 19.609375 179.9818191558382 16.96875Q180.79553698517827 14.328125 182.90453991846786 12.9296875Q185.01354285175745 11.53125 188.01354285175745 11.53125Q190.52916785175745 11.53125 192.81935892273725 12.4921875Q195.10954999371702 13.453125 196.80466718222542 15.1796875Q198.4997843707338 16.90625 199.28389424193918 19.125H194.53389424193918Q193.72306102550147 17.515625 192.27095854334996 16.6015625Q190.81885606119846 15.6875 188.99073106119846 15.6875Z" fill="#FFFFFF"/><path d="M220.1112167772793 11.84375 223.23314127680777 26.53125Q223.75456909215455 28.984375 222.98123764528583 30.859375Q222.20790619841713 32.734375 220.3004445545013 33.7578125Q218.39298291058546 34.78125 215.61173291058546 34.78125Q212.83048291058546 34.78125 210.4957570545013 33.7578125Q208.16103119841713 32.734375 206.59842514528583 30.859375Q205.03581909215455 28.984375 204.51439127680777 26.53125L201.3924667772793 11.84375H206.0799667772793L209.12218256618152 26.15625Q209.39784185709732 27.453125 210.19350521318148 28.4765625Q210.98916856926564 29.5 212.17455283148112 30.078125Q213.3599370936966 30.65625 214.7349370936966 30.65625Q216.1255620936966 30.65625 217.06517783148112 30.078125Q218.00479356926564 29.5 218.35756771318148 28.4765625Q218.71034185709732 27.453125 218.43468256618152 26.15625L215.3924667772793 11.84375Z" fill="#FFFFFF"/><path d="M233.42030898506357 34.46875H228.73280898506357L223.9237167772793 11.84375H228.6112167772793Z" fill="#FFFFFF"/><path d="M246.0827771650906 27.0H235.7702771650906L234.9864748439324 23.3125H245.2989748439324Z" fill="#FFFFFF"/><path d="M257.80323106119846 15.6875Q256.03760606119846 15.6875 254.90494115079778 16.5703125Q253.7722762403971 17.453125 253.41055484007722 19.1328125Q253.04883343975735 20.8125 253.54701288117144 23.15625Q254.05515591141383 25.546875 255.13093451109393 27.2265625Q256.20671311077405 28.90625 257.70187890595923 29.765625Q259.1970447011444 30.625 260.9470447011444 30.625Q262.9001697011444 30.625 264.0169082469222 29.59375Q265.1336467927 28.5625 265.0921380246731 26.75L269.84878041722527 26.78125Q270.03815930705014 28.921875 269.1767392713532 30.75Q268.3153192356562 32.578125 266.4244635731208 33.6796875Q264.53360791058543 34.78125 261.76798291058543 34.78125Q258.72110791058543 34.78125 256.03655704015114 33.3984375Q253.3520061697168 32.015625 251.44248269533298 29.390625Q249.53295922094918 26.765625 248.76576288117144 23.15625Q248.0018877376698 19.5625 248.80945366514794 16.9296875Q249.6170195926261 14.296875 251.72153122219177 12.9140625Q253.82604285175745 11.53125 256.82604285175745 11.53125Q259.43541785175745 11.53125 261.75070702087527 12.5Q264.0659961899931 13.46875 265.77987044871026 15.3203125Q267.4937447074274 17.171875 268.34759970043075 19.71875H263.59759970043075Q263.1477251946193 18.484375 262.28156021246775 17.5703125Q261.4153952303163 16.65625 260.26556314575737 16.171875Q259.11573106119846 15.6875 257.80323106119846 15.6875Z" fill="#FFFFFF"/><path d="M273.3465109044172 28.09375H277.9090109044172Q278.14187289587846 28.96875 278.7846843357505 29.640625Q279.42749577562256 30.3125 280.33532948624884 30.6875Q281.24316319687506 31.0625 282.22753819687506 31.0625Q283.38378819687506 31.0625 284.18991181790204 30.5546875Q284.99603543892897 30.046875 285.30955795677744 29.1328125Q285.6230804746259 28.21875 285.37731195019495 27.0625Q285.1249010332118 25.875 284.41332545292227 24.953125Q283.7017498726327 24.03125 282.66080229738355 23.5078125Q281.6198547221344 22.984375 280.4446585258583 22.96875Q277.8977835258583 22.96875 277.2873444715418 24.875H273.0373444715418L271.4862167772793 11.84375H285.4237167772793L286.24073106119846 15.6875H276.17823106119846L276.7687888982489 21.40625H276.9562888982489Q277.41424810306376 20.546875 278.5139255278146 20.0234375Q279.61360295256543 19.5 281.08235295256543 19.5Q283.14485295256543 19.5 284.99588342540716 20.453125Q286.8469138982489 21.40625 288.1525761942051 23.1015625Q289.4582384901613 24.796875 289.91324237998623 26.9375Q290.3948158400199 29.203125 289.6953072154946 30.984375Q288.99579859096934 32.765625 287.2647032507774 33.7734375Q285.53360791058543 34.78125 283.01798291058543 34.78125Q280.68985791058543 34.78125 278.64000461540024 33.921875Q276.5901513202151 33.0625 275.1960221832959 31.5390625Q273.80189304637673 30.015625 273.3465109044172 28.09375Z" fill="#FFFFFF"/>
</svg>