<?xml version="1.0" encoding="UTF-8" standalone="no"?>
<!-- Created with Inkscape (http://www.inkscape.org/) -->

<svg
   width="411.37503"
   height="135.16537"
   viewBox="0 0 108.84297 35.762505"
   version="1.1"
   id="svg1"
   xml:space="preserve"
   sodipodi:docname="retropangui-logo2.svg"
   inkscape:version="1.3.2 (091e20e, 2023-11-25, custom)"
   xmlns:inkscape="http://www.inkscape.org/namespaces/inkscape"
   xmlns:sodipodi="http://sodipodi.sourceforge.net/DTD/sodipodi-0.dtd"
   xmlns="http://www.w3.org/2000/svg"
   xmlns:svg="http://www.w3.org/2000/svg"><sodipodi:namedview
     id="namedview1"
     pagecolor="#ffffff"
     bordercolor="#000000"
     borderopacity="0.25"
     inkscape:showpageshadow="2"
     inkscape:pageopacity="0.0"
     inkscape:pagecheckerboard="0"
     inkscape:deskcolor="#d1d1d1"
     inkscape:clip-to-page="true"
     inkscape:zoom="1.7091553"
     inkscape:cx="208.87511"
     inkscape:cy="-23.988458"
     inkscape:window-width="1392"
     inkscape:window-height="1212"
     inkscape:window-x="2076"
     inkscape:window-y="141"
     inkscape:window-maximized="0"
     inkscape:current-layer="svg1" /><defs
     id="defs1" /><g
     id="g2"
     transform="translate(-34.107988,0.13229147)"><path
       style="font-size:53.3333px;font-family:'Press Start 2P';-inkscape-font-specification:'Press Start 2P';white-space:pre;display:inline;fill:#1A1E2D;fill-opacity:1;stroke-width:0.392155"
       d="M 34.240278,35.630213 V 23.282998 h 6.510292 v 1.763888 h 1.085049 v 5.291664 h -2.170098 v 1.763888 h 1.085049 v 1.763887 h 1.085049 v 1.763888 h -3.255146 v -1.763888 h -1.085049 v -1.763887 h -1.085049 v 3.527775 z m 2.170097,-5.291663 h 2.170098 v -1.763888 h 1.085048 v -3.527776 h -3.255146 z m 6.510292,5.291663 V 23.282998 h 6.719306 v 1.763888 h -4.549208 v 3.527776 h 3.464159 v 1.763888 h -3.464159 v 3.527775 h 4.549208 v 1.763888 z m 9.982446,0 V 25.046886 h -2.170096 v -1.763888 h 6.510291 v 1.763888 h -2.170097 v 10.583327 z m 5.425244,0 V 23.282998 h 6.510293 v 1.763888 h 1.085048 V 30.33855 H 63.7536 v 1.763888 h 1.08505 v 1.763887 h 1.085048 v 1.763888 h -3.255146 v -1.763888 h -1.085049 v -1.763887 h -1.085047 v 3.527775 z m 2.170099,-5.291663 h 2.170096 V 28.574662 H 63.7536 v -3.527776 h -3.255144 z m 7.595339,5.291663 v -1.763888 h -1.085048 v -8.819439 h 1.085048 v -1.763888 h 5.425242 v 1.763888 h 1.08505 v 8.819439 h -1.08505 v 1.763888 z m 1.085048,-1.763888 h 3.255146 v -8.819439 h -3.255146 z m 13.888624,1.763888 V 23.282998 h 6.510292 v 1.763888 h 1.085048 v 5.291664 h -1.085048 v 1.763888 h -4.340195 v 3.527775 z m 2.170097,-5.291663 h 3.255146 v -5.291664 h -3.255146 z m 6.510288,5.291663 V 26.810774 H 92.8329 v -1.763888 h 1.085051 v -1.763888 h 3.255147 v 1.763888 h 1.085049 v 1.763888 h 1.085044 v 8.819439 h -2.170093 v -3.527775 h -3.255147 v 3.527775 z m 2.170099,-5.291663 h 3.255147 v -3.527776 h -1.085051 v -1.763888 h -1.085048 v 1.763888 h -1.085048 z m 6.510289,5.291663 V 23.282998 h 2.1701 v 1.763888 h 1.08505 v 1.763888 h 1.08505 v 1.763888 h 1.08505 v -5.291664 h 2.17009 v 12.347215 h -2.17009 v -3.527775 h -1.08505 V 30.33855 h -1.08505 v -1.763888 h -1.08505 v 7.055551 z m 10.85049,0 v -1.763888 h -1.08504 v -1.763887 h -1.08505 v -5.291664 h 1.08505 v -1.763888 h 1.08504 v -1.763888 h 5.42525 v 1.763888 h -4.3402 v 1.763888 h -1.08505 v 5.291664 h 1.08505 v 1.763887 h 2.1701 V 30.33855 h -1.08505 v -1.763888 h 3.25515 v 7.055551 z m 15.29919,0 v -1.763888 h -1.08505 V 23.282998 h 2.1701 v 10.583327 h 3.25514 V 23.282998 h 2.1701 v 10.583327 h -1.08505 v 1.763888 z m 8.68039,0 v -1.763888 h 2.1701 v -8.819439 h -2.1701 v -1.763888 h 6.51029 v 1.763888 h -2.1701 v 8.819439 h 2.1701 v 1.763888 z"
       id="text1"
       aria-label="RETRO PANG UI " /><path
       style="font-size:96px;font-family:'PF Stardust ExtraBold';-inkscape-font-specification:'PF Stardust ExtraBold, ';white-space:pre;fill:#2c0000;fill-opacity:0.284298;stroke:#2c0000;stroke-width:0.264583;stroke-linecap:square;stroke-linejoin:round;stroke-dasharray:none;stroke-dashoffset:0;stroke-opacity:0.619835"
       d="M 35.290345,0.54156894 H 46.948548 V 8.1069986 H 38.266907 V 17.991668 H 35.290345 V 5.4777017 h 8.68164 V 3.1708658 h -8.68164 z m 8.68164,14.80839906 h 2.976563 v 2.6417 h -2.976563 z m -6.945312,1.649511 h 8.185547 v 2.629298 H 37.026673 Z M 49.056946,0.55397124 h 2.951758 V 22.915397 h -2.951758 v -9.847461 h -3.323828 v -2.641699 h 3.323828 z m 3.472656,0 H 55.53097 V 22.915397 h -3.001368 z m 6.536036,-0.012401 H 75.945227 V 3.1708671 H 62.042201 V 5.4777017 H 75.945227 V 8.1069986 H 62.042201 V 13.055534 H 59.065638 Z M 60.801967,12.063348 h 15.14326 v 2.629297 h -15.14326 z m -3.336232,6.536034 h 20.228221 v 2.6417 H 57.465735 Z M 81.228626,0.54156894 H 98.108214 V 8.1069986 H 84.205188 v 3.9563474 h 13.903026 v 2.629297 H 81.228626 V 5.4777017 H 95.131651 V 3.1708658 H 81.228626 Z M 88.186339,13.712858 h 2.951758 v 4.911328 h 8.718849 v 2.629297 H 79.628722 v -2.629297 h 8.557617 z M 101.79171,0.54156894 h 13.40694 V 3.1832682 h -1.74873 v 7.2305658 h 1.74873 v 2.6417 h -13.40694 v -2.6417 h 1.73633 V 3.1832682 h -1.73633 z m 4.71289,2.64169926 v 7.2305658 h 3.96875 V 3.1832682 Z m 10.77764,-2.65410166 h 2.97656 V 5.4777017 h 1.76114 v 2.6292969 h -1.76114 v 4.9361334 h -2.97656 z M 105.11554,13.700456 h 13.40693 v 2.641699 h -13.40693 z m -1.73633,1.649512 h 2.97657 v 5.92832 h -2.97657 z m 13.90303,0 h 2.97656 v 5.92832 h -2.97656 z m -12.1667,4.936132 h 13.40693 v 2.641701 H 105.11554 Z M 125.70343,0.54156894 h 8.18555 V 3.1708658 h -8.18555 z M 123.9671,2.1786783 h 2.97657 V 17.991668 h -2.97657 z m 8.68165,0 h 2.97656 V 17.991668 h -2.97656 z m -6.94532,14.8208007 h 8.18555 v 2.629298 h -8.18555 z M 139.8421,0.56637364 h 2.97657 V 22.952605 h -2.97657 z"
       id="path2"
       aria-label="레트로팡이" /><path
       style="font-size:96px;font-family:'PF Stardust ExtraBold';-inkscape-font-specification:'PF Stardust ExtraBold, ';white-space:pre;fill:#800000;fill-opacity:1;stroke:#000000;stroke-width:0.264583;stroke-dasharray:0.0661458, 0.0661458;stroke-dashoffset:0;stroke-opacity:1"
       d="M 34.240279,0.01240237 H 45.898482 V 7.577832 h -8.681641 v 9.884669 H 34.240279 V 4.9485351 h 8.68164 V 2.6416992 h -8.68164 z m 8.68164,14.80839863 h 2.976563 v 2.6417 h -2.976563 z m -6.945312,1.649511 h 8.185547 V 19.09961 H 35.976607 Z M 48.00688,0.02480472 h 2.951758 V 22.38623 H 48.00688 V 12.538769 H 44.683052 V 9.8970702 h 3.323828 z m 3.472657,0 h 3.001367 V 22.38623 H 51.479537 Z M 58.015572,0.0124037 H 74.895161 V 2.6417005 H 60.992135 V 4.9485351 H 74.895161 V 7.577832 H 60.992135 v 4.948535 h -2.976563 z m 1.736329,11.5217773 h 15.14326 v 2.629297 h -15.14326 z m -3.336232,6.536034 H 76.64389 v 2.6417 H 56.415669 Z M 80.17856,0.01240237 H 97.058148 V 7.577832 H 83.155122 v 3.956348 h 13.903026 v 2.629296 H 80.17856 V 4.9485351 H 94.081585 V 2.6416992 H 80.17856 Z M 87.136273,13.183691 h 2.951758 v 4.911328 h 8.718849 v 2.629297 H 78.578656 v -2.629297 h 8.557617 z M 100.74165,0.01240237 h 13.40693 V 2.6541016 h -1.74873 v 7.2305663 h 1.74873 V 12.526367 H 100.74165 V 9.8846679 h 1.73632 V 2.6541016 h -1.73632 z m 4.71289,2.64169923 v 7.2305663 h 3.96875 V 2.6541016 Z M 116.23217,2.8593751e-8 h 2.97656 V 4.9485351 h 1.76114 V 7.577832 h -1.76114 v 4.936133 h -2.97656 z M 104.06547,13.171289 h 13.40694 v 2.641699 h -13.40694 z m -1.73632,1.649512 h 2.97656 v 5.92832 h -2.97656 z m 13.90302,0 h 2.97656 v 5.92832 h -2.97656 z m -12.1667,4.936132 h 13.40694 v 2.641701 H 104.06547 Z M 124.65336,0.01240237 h 8.18555 V 2.6416992 h -8.18555 z m -1.73632,1.63710933 h 2.97656 V 17.462501 h -2.97656 z m 8.68164,0 h 2.97656 V 17.462501 h -2.97656 z m -6.94532,14.8208003 h 8.18555 v 2.629298 h -8.18555 z M 138.79204,0.03720706 h 2.97656 V 22.423439 h -2.97656 z"
       id="text2"
       aria-label="레트로팡이" /></g></svg>
