<?xml version="1.0" encoding="UTF-8"?>
<svg xmlns="http://www.w3.org/2000/svg" viewBox="0 0 90 18" width="90" height="18">
  <g transform="translate(-31.721369,-77.150883)">
    <path d="m 35.03162,80.646214 q 0.653502,0.03425 1.003684,-0.252538 0.35517,-0.286524 0.38602,-0.875175 0.01935,-0.369154 -0.206227,-0.551052 -0.220324,-0.186626 -0.71918,-0.21277 l -0.793182,-0.04157 -0.479262,1.89075 z m -1.132107,1.271271 -0.701444,2.789519 -1.920597,-0.100654 1.842001,-7.371848 2.838493,0.148759 q 1.227187,0.06431 1.836682,0.556465 0.609496,0.492151 0.562698,1.385104 -0.04732,0.90293 -0.576766,1.460448 -0.529444,0.557518 -1.386933,0.597618 0.384925,0.100209 0.627598,0.433072 0.242935,0.327875 0.40324,0.991573 l 0.522697,2.148354 -1.91062,-0.100132 -0.461725,-1.880038 q -0.140591,-0.56262 -0.374312,-0.779962 -0.228471,-0.222068 -0.687419,-0.246121 z m 7.097723,-4.682983 5.178129,0.271375 -0.360427,1.43677 -3.257532,-0.17072 -0.342063,1.372703 3.067967,0.160785 -0.365416,1.436509 -3.062978,-0.160524 -0.418658,1.688834 3.362293,0.17621 -0.35045,1.437293 -5.292867,-0.277387 z m 6.100614,-0.04654 6.864265,0.359741 -0.360427,1.43677 -2.474328,-0.129674 -1.481575,5.935078 -1.920597,-0.100655 1.481575,-5.935077 -2.474328,-0.129674 z m 9.778699,3.458248 q 0.653502,0.03425 1.003683,-0.252538 0.355171,-0.286524 0.38602,-0.875175 0.01935,-0.369154 -0.206227,-0.551052 -0.220323,-0.186626 -0.71918,-0.21277 l -0.793181,-0.04157 -0.479263,1.89075 z m -1.132107,1.271271 -0.701444,2.789519 -1.920598,-0.100654 1.842002,-7.371848 2.838493,0.148759 q 1.227187,0.06431 1.836682,0.556465 0.609495,0.492151 0.562698,1.385104 -0.04732,0.90293 -0.576766,1.460448 -0.529445,0.557518 -1.386934,0.597618 0.384925,0.100209 0.627599,0.433072 0.242934,0.327875 0.40324,0.991573 l 0.522697,2.148354 -1.91062,-0.100132 -0.461725,-1.880038 q -0.140592,-0.56262 -0.374312,-0.779962 -0.228471,-0.222068 -0.687419,-0.246121 z m 11.557133,-1.387888 q 0.04601,-0.877988 -0.329019,-1.357851 -0.370044,-0.479601 -1.123317,-0.519079 -0.997713,-0.05229 -1.723217,0.810098 -0.720254,0.857659 -0.790843,2.204571 -0.04497,0.858033 0.324293,1.352601 0.369259,0.494567 1.072647,0.53143 0.573685,0.03007 1.030216,-0.186117 0.461781,-0.220911 0.800898,-0.678353 0.323105,-0.438273 0.512543,-0.998604 0.194427,-0.560069 0.225799,-1.158696 z M 66.20154,77.275499 q 1.486592,0.07791 2.346123,0.953331 0.864781,0.870695 0.794977,2.202642 -0.04758,0.907918 -0.369295,1.701425 -0.316724,0.793768 -0.879238,1.40958 -0.690082,0.759195 -1.5987,1.106755 -0.903368,0.342834 -2.060715,0.28218 -1.481604,-0.07765 -2.341396,-0.948082 -0.859793,-0.870433 -0.789727,-2.207369 0.04784,-0.912907 0.364568,-1.706675 0.316724,-0.793768 0.884487,-1.414308 0.679844,-0.754728 1.583212,-1.097562 0.908357,-0.342571 2.065704,-0.281917 z m 5.337634,-0.041 3.187692,0.16706 q 1.172313,0.06144 1.802568,0.634714 0.635505,0.568547 0.58557,1.521363 -0.03059,0.583662 -0.277798,1.100947 -0.246948,0.512296 -0.676664,0.884954 -0.466204,0.40076 -1.089994,0.563157 -0.623528,0.157408 -1.551401,0.10878 l -1.267095,-0.06641 -0.634282,2.557932 -1.920598,-0.100654 z m 1.583262,1.478608 -0.518083,2.058793 1.062564,0.05569 q 0.678445,0.03556 1.054354,-0.264889 0.375908,-0.300445 0.407804,-0.909049 0.02118,-0.404074 -0.226987,-0.632177 -0.243175,-0.227842 -0.727065,-0.253202 z m 8.008811,4.788117 -2.973185,-0.155818 -0.809419,1.318196 -1.970483,-0.103268 4.600678,-7.227272 2.194968,0.115034 0.926652,7.516946 -1.825815,-0.09569 z m -2.178993,-1.46981 2.000414,0.104837 -0.298643,-2.891954 z m 7.06362,-4.796915 2.145082,0.112419 1.435761,5.247588 1.27303,-5.105626 1.815837,0.09516 -1.842001,7.371848 -2.145083,-0.112419 -1.43576,-5.247588 -1.268042,5.105887 -1.820826,-0.09542 z m 13.493691,7.171584 q -0.746893,0.316018 -1.539248,0.449571 -0.792093,0.128565 -1.685046,0.08177 -1.586364,-0.08314 -2.452191,-0.933879 -0.865565,-0.855729 -0.792624,-2.247539 0.04732,-0.90293 0.372977,-1.676221 0.325917,-0.77828 0.923873,-1.402239 0.730252,-0.762092 1.683767,-1.107299 0.958504,-0.344946 2.160748,-0.281939 0.668468,0.03503 1.339592,0.210269 0.671127,0.175235 1.315237,0.484116 l -0.37511,1.526042 q -0.590044,-0.386084 -1.164555,-0.591272 -0.569523,-0.204927 -1.158174,-0.235777 -1.28705,-0.06745 -2.140165,0.748229 -0.853115,0.815679 -0.923703,2.162592 -0.0468,0.892953 0.396244,1.411396 0.448032,0.518705 1.306065,0.563672 0.279359,0.01464 0.560549,-0.0056 0.281451,-0.02527 0.569982,-0.09018 l 0.360166,-1.431782 -1.172313,-0.06144 0.311891,-1.274239 2.983163,0.156341 z m 3.465725,-7.171584 1.9206,0.100655 -1.10174,4.414286 q -0.0624,0.236836 -0.097,0.420106 -0.0296,0.183531 -0.037,0.323211 -0.0256,0.488879 0.22098,0.746914 0.25184,0.253307 0.77065,0.280497 0.6984,0.0366 1.09294,-0.332899 0.39479,-0.374488 0.62327,-1.297938 l 1.102,-4.419275 1.9206,0.100655 -1.102,4.419274 q -0.41053,1.629233 -1.35741,2.324947 -0.94162,0.690987 -2.62775,0.60262 -1.32197,-0.06928 -1.98085,-0.669068 -0.65862,-0.604775 -0.60215,-1.682304 0.009,-0.179589 0.0459,-0.397778 0.0367,-0.223179 0.107,-0.514628 z m 8.30737,0 1.9206,0.100655 -1.84201,7.371847 -1.92059,-0.100654 z" fill="#1A1E2D"/>
    <path d="m 41.384023,87.401793 h 1.981274 q 0.728638,0 1.137915,0.334863 0.412378,0.331763 0.412378,0.923975 0,0.362768 -0.136426,0.691431 -0.136426,0.325561 -0.390674,0.570507 -0.275952,0.26355 -0.657324,0.384473 -0.381372,0.117822 -0.958081,0.117822 h -0.787549 l -0.310058,1.606104 h -1.193726 z m 1.029394,0.865063 -0.254248,1.292945 h 0.660425 q 0.421679,0 0.644922,-0.198438 0.223242,-0.198437 0.223242,-0.576709 0,-0.251147 -0.161231,-0.384472 -0.15813,-0.133326 -0.458886,-0.133326 z m 4.272607,2.201416 q -0.415478,0 -0.629418,0.130225 -0.21084,0.127124 -0.21084,0.378272 0,0.189135 0.124023,0.297656 0.127124,0.10852 0.347266,0.10852 0.341064,0 0.570508,-0.204638 0.229443,-0.20774 0.306958,-0.582911 l 0.0248,-0.127124 z m 1.733228,-0.418579 -0.387573,1.981275 h -1.11001 l 0.09302,-0.514698 q -0.272852,0.310059 -0.576709,0.458887 -0.303858,0.145728 -0.660425,0.145728 -0.492993,0 -0.784448,-0.254248 -0.288355,-0.257349 -0.288355,-0.691431 0,-0.663525 0.511597,-1.013892 0.514697,-0.353466 1.48208,-0.353466 h 0.654223 l 0.0124,-0.08682 q 0.0093,-0.04341 0.0093,-0.06201 0.0031,-0.0186 0.0031,-0.03411 0,-0.204639 -0.195337,-0.306958 -0.192236,-0.10542 -0.573608,-0.10542 -0.344165,0 -0.666626,0.07131 -0.322461,0.07131 -0.623218,0.21394 l 0.167432,-0.84646 q 0.347265,-0.08682 0.710034,-0.130225 0.365869,-0.04651 0.756543,-0.04651 0.772046,0 1.147217,0.26665 0.375171,0.26355 0.375171,0.806152 0,0.10542 -0.0155,0.232544 -0.0124,0.124024 -0.04031,0.269751 z m 4.557861,-0.133325 -0.412378,2.1146 h -1.11311 l 0.350366,-1.810742 q 0.03721,-0.176734 0.05581,-0.297657 0.0217,-0.124023 0.0217,-0.195337 0,-0.198437 -0.111621,-0.306958 -0.10852,-0.10852 -0.310058,-0.10852 -0.344165,0 -0.592212,0.269751 -0.244946,0.26665 -0.341065,0.74104 l -0.334863,1.708423 h -1.11311 l 0.675928,-3.472656 h 1.11621 l -0.102319,0.508496 q 0.306958,-0.300757 0.617017,-0.446485 0.310058,-0.145727 0.648022,-0.145727 0.480591,0 0.74104,0.251147 0.260449,0.251148 0.260449,0.706934 0,0.09922 -0.0155,0.220141 -0.0124,0.120923 -0.04031,0.26355 z m 3.078882,1.525488 q -0.26665,0.303858 -0.542602,0.446485 -0.275953,0.142627 -0.601514,0.142627 -0.589111,0 -0.933276,-0.378272 -0.341065,-0.381372 -0.341065,-1.038696 0,-0.350366 0.117822,-0.700732 0.120923,-0.353467 0.344165,-0.663526 0.272852,-0.375171 0.626319,-0.570508 0.353467,-0.198437 0.759643,-0.198437 0.365869,0 0.613916,0.142627 0.251148,0.142627 0.42168,0.449585 l 0.09302,-0.514697 h 1.119311 l -0.586011,3.01687 q -0.179834,0.933276 -0.768945,1.37976 -0.589111,0.446485 -1.637109,0.446485 -0.322461,0 -0.623218,-0.04961 -0.297656,-0.04961 -0.589111,-0.151928 l 0.164331,-0.865064 q 0.263549,0.167432 0.527099,0.248047 0.26355,0.08372 0.539502,0.08372 0.551905,0 0.84646,-0.235645 0.297656,-0.235644 0.399976,-0.750341 z m -0.310058,-2.161108 q -0.409278,0 -0.682129,0.36897 -0.269751,0.368969 -0.269751,0.927075 0,0.31626 0.145727,0.483691 0.145728,0.164331 0.42478,0.164331 0.406177,0 0.679029,-0.365869 0.272851,-0.368969 0.272851,-0.917773 0,-0.322461 -0.145727,-0.489893 -0.145728,-0.170532 -0.42478,-0.170532 z" fill="#FF8855"/>
    <path d="m 59.286806,87.401793 v 1.720825 h -0.734838 v -1.720825 z m 4.160986,1.265039 -0.164331,0.861963 Q 62.9579,89.373766 62.635439,89.29315 q -0.322461,-0.08061 -0.610816,-0.08061 -0.328662,0 -0.508496,0.08682 -0.176733,0.08371 -0.176733,0.241845 0,0.09302 0.09922,0.148828 0.09922,0.05581 0.390674,0.117823 l 0.201538,0.03721 q 0.672827,0.142627 0.942578,0.368969 0.269751,0.223243 0.269751,0.623218 0,0.604614 -0.47439,0.945679 -0.47439,0.337964 -1.327051,0.337964 -0.356567,0 -0.728637,-0.05581 -0.372071,-0.05581 -0.759644,-0.167431 l 0.167432,-0.871265 q 0.300757,0.176733 0.641821,0.26665 0.344165,0.08992 0.703833,0.08992 0.350366,0 0.5271,-0.08372 0.176733,-0.08371 0.176733,-0.244946 0,-0.111621 -0.09922,-0.173633 -0.09922,-0.06201 -0.409277,-0.127124 l -0.201538,-0.03721 q -0.595313,-0.124023 -0.849561,-0.365869 -0.254248,-0.241846 -0.254248,-0.669726 0,-0.57981 0.437183,-0.892969 0.440283,-0.313159 1.255737,-0.313159 0.356568,0 0.700733,0.04961 0.347265,0.04651 0.697631,0.142627 z m 6.759277,3.019971 q -0.452685,0.220141 -0.939477,0.328662 -0.486792,0.10542 -1.041797,0.10542 -0.985986,0 -1.550293,-0.499195 -0.564307,-0.502295 -0.564307,-1.367358 0,-0.561206 0.176734,-1.051099 0.176733,-0.492993 0.527099,-0.89917 0.427881,-0.496093 1.007691,-0.74104 0.58291,-0.244946 1.330151,-0.244946 0.415479,0 0.837158,0.08682 0.42168,0.08682 0.830957,0.257348 l -0.182934,0.958081 q -0.378272,-0.220141 -0.74104,-0.328662 -0.359668,-0.10852 -0.725537,-0.10852 -0.799952,0 -1.302246,0.5333 -0.502295,0.533301 -0.502295,1.370459 0,0.555005 0.291455,0.861963 0.294555,0.306958 0.827856,0.306958 0.173633,0 0.347266,-0.0217 0.173633,-0.02481 0.350366,-0.07441 l 0.176733,-0.89917 H 68.631972 L 68.7839,89.460582 h 1.854151 z m 4.005956,-0.499195 h -1.847949 l -0.458887,0.84336 h -1.224731 l 2.616894,-4.629175 h 1.364258 l 0.818555,4.629175 H 74.34635 Z M 72.814661,90.34735 h 1.243335 l -0.279053,-1.782837 z m 4.229201,-2.945557 h 1.466577 l 0.595313,2.458765 1.562695,-2.458765 h 1.525488 l -0.90227,4.629175 h -1.131714 l 0.660425,-3.416846 -1.606104,2.526978 h -0.641821 l -0.638721,-2.526978 -0.660425,3.416846 h -1.131713 z m 6.318993,0 h 1.193725 l -0.90227,4.629175 h -1.193726 z m 2.362648,0 h 1.333252 l 1.0604,3.206006 0.623218,-3.206006 h 1.128613 l -0.90227,4.629175 h -1.333252 l -1.060401,-3.206006 -0.620117,3.206006 h -1.131714 z m 8.604125,4.28501 q -0.452686,0.220141 -0.939478,0.328662 -0.486792,0.10542 -1.041796,0.10542 -0.985987,0 -1.550293,-0.499195 -0.564307,-0.502295 -0.564307,-1.367358 0,-0.561206 0.176733,-1.051099 0.176734,-0.492993 0.5271,-0.89917 0.427881,-0.496093 1.00769,-0.74104 0.582911,-0.244946 1.330152,-0.244946 0.415478,0 0.837158,0.08682 0.42168,0.08682 0.830957,0.257348 l -0.182935,0.958081 q -0.378271,-0.220141 -0.74104,-0.328662 -0.359668,-0.10852 -0.725537,-0.10852 -0.799951,0 -1.302246,0.5333 -0.502295,0.533301 -0.502295,1.370459 0,0.555005 0.291455,0.861963 0.294556,0.306958 0.827857,0.306958 0.173633,0 0.347265,-0.0217 0.173633,-0.02481 0.350367,-0.07441 l 0.176733,-0.89917 H 92.75453 l 0.151929,-0.799951 h 1.85415 z" fill="#A0B8CC"/>
    <path d="m 98.462708,87.401793 h 1.193726 l -0.539502,2.771924 q -0.03101,0.148828 -0.04651,0.26355 -0.0124,0.114721 -0.0124,0.201538 0,0.303857 0.16123,0.455786 0.164331,0.148828 0.486792,0.148828 0.434087,0 0.666627,-0.241846 0.23254,-0.244946 0.34416,-0.824756 l 0.53951,-2.775024 h 1.19372 l -0.5395,2.775024 q -0.20154,1.023194 -0.76584,1.485181 -0.56121,0.458887 -1.609209,0.458887 -0.821655,0 -1.249536,-0.350367 -0.427881,-0.353466 -0.427881,-1.023193 0,-0.111621 0.0155,-0.248047 0.0155,-0.139526 0.04961,-0.322461 z m 5.156272,0 h 1.19373 l -0.90227,4.629175 h -1.19373 z" fill="#66AAFF"/>
  </g>
</svg>