<?xml version="1.0" encoding="UTF-8"?>
<svg xmlns="http://www.w3.org/2000/svg" viewBox="0 0 200 140" width="200" height="140">
  <rect width="200" height="140" rx="6" fill="#1E2640"/>
  <rect x="1" y="1" width="198" height="138" rx="5" fill="none" stroke="#2D3A5A" stroke-width="1"/>
  <path d="M67.23897435897436 79.16923076923077H65.61846153846153V60.892307692307696H67.23897435897436ZM62.19282051282051 68.66666666666667Q62.19282051282051 70.57435897435897 61.59794871794872 72.0102564102564Q61.003076923076925 73.44615384615385 59.94666666666667 74.22564102564102Q58.89025641025641 75.0051282051282 57.53641025641026 75.0051282051282Q56.1825641025641 75.0051282051282 55.12102564102564 74.22564102564102Q54.05948717948718 73.44615384615385 53.46974358974359 72.0102564102564Q52.88 70.57435897435897 52.88 68.66666666666667Q52.88 66.75897435897436 53.46974358974359 65.32307692307693Q54.05948717948718 63.88717948717949 55.11589743589744 63.1025641025641Q56.17230769230769 62.317948717948724 57.53641025641026 62.30769230769231Q58.89025641025641 62.317948717948724 59.94666666666667 63.1025641025641Q61.003076923076925 63.88717948717949 61.59794871794872 65.32307692307693Q62.19282051282051 66.75897435897436 62.19282051282051 68.66666666666667ZM54.43897435897436 68.66666666666667Q54.43897435897436 70.13333333333334 54.82871794871795 71.24615384615385Q55.21846153846154 72.35897435897436 55.92615384615385 72.96410256410257Q56.63384615384616 73.56923076923077 57.53641025641026 73.56923076923077Q58.43897435897436 73.56923076923077 59.14666666666667 72.96410256410257Q59.85435897435897 72.35897435897436 60.24410256410256 71.24615384615385Q60.63384615384615 70.13333333333334 60.63384615384615 68.66666666666667Q60.63384615384615 67.2 60.24410256410256 66.0871794871795Q59.85435897435897 64.97435897435898 59.15179487179487 64.36410256410257Q58.449230769230766 63.753846153846155 57.53641025641026 63.743589743589745Q56.62358974358975 63.753846153846155 55.92102564102564 64.36410256410257Q55.21846153846154 64.97435897435898 54.82871794871795 66.0871794871795Q54.43897435897436 67.2 54.43897435897436 68.66666666666667Z" fill="#6B7A8E"/>
  <path d="M79.85435897435897 74.55384615384615H71.42358974358973V62.697435897435895H79.85435897435897ZM73.00307692307692 73.24102564102564H78.27487179487179V63.98974358974359H73.00307692307692ZM85.3928205128205 79.16923076923077H83.77230769230769V60.892307692307696H85.3928205128205Z" fill="#6B7A8E"/>
  <path d="M99.9774358974359 73.8974358974359 99.0748717948718 75.16923076923077Q97.46461538461539 74.43076923076923 96.1723076923077 72.93846153846154Q94.88 71.44615384615385 94.24410256410256 69.56923076923077Q93.60820512820513 71.57948717948719 92.32102564102564 73.2051282051282Q91.03384615384616 74.83076923076923 89.47487179487179 75.62051282051283L88.51076923076923 74.34871794871795Q89.80307692307693 73.72307692307693 90.92615384615385 72.46153846153847Q92.04923076923077 71.2 92.72615384615385 69.61538461538461Q93.40307692307692 68.03076923076924 93.41333333333333 66.49230769230769V64.11282051282052H89.10564102564102V62.779487179487184H99.3825641025641V64.11282051282052H95.03384615384616V66.49230769230769Q95.03384615384616 68.0 95.70051282051281 69.49230769230769Q96.36717948717948 70.98461538461538 97.50051282051282 72.14871794871794Q98.63384615384615 73.31282051282051 99.9774358974359 73.8974358974359ZM103.54666666666667 79.12820512820512H101.92615384615385V60.892307692307696H103.54666666666667Z" fill="#6B7A8E"/>
  <path d="M116.59692307692308 73.87692307692308H119.92V71.60000000000001H121.4174358974359V78.88205128205128H115.07897435897436V71.60000000000001H116.59692307692308ZM119.92 77.61025641025641V75.1076923076923H116.59692307692308V77.61025641025641ZM129.99179487179487 77.7948717948718 129.15076923076924 79.02564102564102Q127.9302564102564 78.53333333333333 127.08410256410255 77.63076923076923Q126.23794871794871 76.72820512820513 125.80717948717948 75.54871794871795Q125.35589743589743 76.70769230769231 124.5148717948718 77.61538461538461Q123.67384615384616 78.52307692307693 122.50461538461539 79.02564102564102L121.66358974358974 77.7948717948718Q122.73025641025642 77.35384615384615 123.48923076923077 76.59487179487179Q124.24820512820513 75.83589743589744 124.63794871794872 74.90769230769232Q125.0276923076923 73.97948717948718 125.0276923076923 73.03589743589744V71.47692307692307H126.62769230769231V73.03589743589744Q126.6174358974359 74.02051282051282 127.00205128205128 74.95897435897436Q127.38666666666667 75.8974358974359 128.15076923076924 76.64615384615385Q128.9148717948718 77.39487179487179 129.99179487179487 77.7948717948718ZM122.64820512820513 65.2H126.46358974358975V60.892307692307696H128.08410256410258V70.55384615384615H126.46358974358975V66.53333333333333H122.65846153846154Q122.50461538461539 67.6 121.86358974358976 68.41025641025641Q121.2225641025641 69.22051282051282 120.2174358974359 69.66153846153847Q119.21230769230769 70.1025641025641 117.99179487179487 70.1025641025641Q116.6174358974359 70.1025641025641 115.54051282051282 69.57435897435897Q114.46358974358975 69.04615384615384 113.85846153846154 68.08717948717948Q113.25333333333333 67.12820512820512 113.25333333333333 65.8974358974359Q113.25333333333333 64.67692307692307 113.85846153846154 63.723076923076924Q114.46358974358975 62.769230769230774 115.54051282051282 62.241025641025644Q116.6174358974359 61.712820512820514 117.99179487179487 61.712820512820514Q119.20205128205129 61.712820512820514 120.19692307692307 62.14358974358974Q121.19179487179487 62.57435897435897 121.83282051282052 63.36923076923077Q122.47384615384615 64.16410256410256 122.64820512820513 65.2ZM114.79179487179488 65.8974358974359Q114.79179487179488 66.72820512820513 115.20205128205129 67.37948717948719Q115.6123076923077 68.03076923076924 116.34051282051283 68.4Q117.06871794871795 68.76923076923077 117.99179487179487 68.76923076923077Q118.90461538461538 68.76923076923077 119.6225641025641 68.4Q120.34051282051283 68.03076923076924 120.74564102564102 67.37948717948719Q121.15076923076923 66.72820512820513 121.15076923076923 65.8974358974359Q121.15076923076923 65.07692307692308 120.74564102564102 64.43076923076923Q120.34051282051283 63.784615384615385 119.6225641025641 63.42564102564103Q118.90461538461538 63.06666666666667 117.99179487179487 63.06666666666667Q117.06871794871795 63.06666666666667 116.34051282051283 63.42564102564103Q115.6123076923077 63.784615384615385 115.20205128205129 64.43076923076923Q114.79179487179488 65.07692307692308 114.79179487179488 65.8974358974359Z" fill="#6B7A8E"/>
  <path d="M145.86871794871794 64.76923076923077Q145.86871794871794 65.83589743589744 145.08923076923077 66.6Q144.3097435897436 67.36410256410257 142.85846153846154 67.76923076923077Q141.4071794871795 68.17435897435898 139.42769230769233 68.17435897435898Q137.44820512820513 68.17435897435898 135.99179487179487 67.76923076923077Q134.53538461538463 67.36410256410257 133.75076923076924 66.6Q132.96615384615384 65.83589743589744 132.96615384615384 64.76923076923077Q132.96615384615384 63.68205128205128 133.75076923076924 62.9025641025641Q134.53538461538463 62.12307692307692 135.99179487179487 61.712820512820514Q137.44820512820513 61.302564102564105 139.42769230769233 61.302564102564105Q141.4071794871795 61.302564102564105 142.85846153846154 61.712820512820514Q144.3097435897436 62.12307692307692 145.08923076923077 62.9025641025641Q145.86871794871794 63.68205128205128 145.86871794871794 64.76923076923077ZM134.6276923076923 64.76923076923077Q134.6174358974359 65.42564102564103 135.1969230769231 65.9025641025641Q135.77641025641026 66.37948717948719 136.86358974358973 66.63589743589745Q137.95076923076923 66.8923076923077 139.42769230769233 66.9025641025641Q140.88410256410256 66.8923076923077 141.96615384615384 66.63589743589745Q143.04820512820513 66.37948717948719 143.63794871794872 65.9025641025641Q144.2276923076923 65.42564102564103 144.2276923076923 64.76923076923077Q144.2276923076923 64.1025641025641 143.63794871794872 63.61025641025641Q143.04820512820513 63.11794871794872 141.96102564102563 62.85641025641026Q140.87384615384616 62.59487179487179 139.42769230769233 62.59487179487179Q137.96102564102566 62.59487179487179 136.87384615384616 62.85641025641026Q135.78666666666666 63.11794871794872 135.2020512820513 63.61025641025641Q134.6174358974359 64.1025641025641 134.6276923076923 64.76923076923077ZM145.70461538461538 78.88205128205128H133.15076923076924V72.8923076923077H145.70461538461538ZM134.75076923076924 77.56923076923077H144.12512820512822V74.18461538461538H134.75076923076924ZM147.73538461538462 71.08717948717948H131.12V69.75384615384615H147.73538461538462Z" fill="#6B7A8E"/>
</svg>
