<?xml version="1.0" encoding="utf-8"?>
<!-- Generator: Adobe Illustrator 24.1.0, SVG Export Plug-In . SVG Version: 6.00 Build 0)  -->
<svg version="1.1" id="Capa_1" xmlns="http://www.w3.org/2000/svg" xmlns:xlink="http://www.w3.org/1999/xlink" x="0px" y="0px"
	 width="360.5px" height="61.4px" viewBox="0 0 360.5 61.4" enable-background="new 0 0 360.5 61.4" xml:space="preserve">
<g id="Capa_2_1_">
	<g id="Capa_1-2">
		<path fill="#FFFFFF" d="M85.1,50.9V7.5H73.6v18.1h-14V7.5H48.5v45.8h11.1V35.9h14v17.4h10.6"/>
		<path fill="#FFFFFF" d="M105.7,7.5L81.6,53.3h11.8l9.1-17.5h10.3v17.5h9.9V7.5H105.7z M108.2,24.7l4.5-7.9v7.9H108.2z M127.1,7.5
			v45.8h11.2V29.5l16.5,23.8l0,0h10V7.5h-11.5V32L135.9,7.5h-0.1l0,0L127.1,7.5z M210.2,7.5v45.8h26.3V42.6h-14.4v-6.3h13.8V24.5
			h-13.8v-6.3h14.4V7.5L210.2,7.5z M239.9,7.5v45.8h24.4V42.6h-13.2V7.5L239.9,7.5z M29.6,7C16.6,7,6,17.6,6,30.6
			s10.6,23.6,23.6,23.6c7.6-0.3,13.7-3.3,17.5-7.9l-8.3-8.1c-2.1,3.2-6.3,4.4-9.1,4.5c-6.4,0-11.7-5.2-11.7-11.7
			c0-6.4,5.2-11.7,11.7-11.7c3.6,0.2,5.6,0.9,8.1,3.4l0.1-0.1l0.1,0.1l9-8.1C42.5,9.8,36.2,7.1,29.6,7z M169,7.5v45.8h11.1V29.5
			l16.5,23.8l0,0h10V7.5h-11.5V32L177.8,7.5l0,0l0,0L169,7.5z"/>
		<path fill="none" stroke="#FFFFFF" stroke-width="0.67" stroke-linejoin="round" d="M312.5,0.3c11.6,0.1,33.3,1.7,35.8,4.6
			c2.8,3.2,4.7,17,4.6,25.7S351,54.8,347.3,57c-4.1,2.3-23.2,4.2-34.8,4.1S281.3,60,277.2,57c-3.3-2.3-5.6-17.8-5.4-26.4
			s0.9-21.9,4.9-25.6C280.2,2,301.3,0.3,312.5,0.3z"/>
		<path fill="#FFFFFF" d="M298.2,5.9v49.4h12.7V36.5h16V25h-16v-7.8h16V5.9H298.2z"/>
	</g>
</g>
</svg>
