<?xml version="1.0" encoding="utf-8"?>
<!-- Generator: Adobe Illustrator 16.0.3, SVG Export Plug-In . SVG Version: 6.00 Build 0)  -->
<!DOCTYPE svg PUBLIC "-//W3C//DTD SVG 1.0//EN" "http://www.w3.org/TR/2001/REC-SVG-20010904/DTD/svg10.dtd">
<svg version="1.0" id="Layer_1" xmlns="http://www.w3.org/2000/svg" xmlns:xlink="http://www.w3.org/1999/xlink" x="0px" y="0px"
	 width="786px" height="80.5px" viewBox="0 0 786 80.5" enable-background="new 0 0 786 80.5" xml:space="preserve">
<g>
	<path fill="#FFFFFF" d="M245.427,51.304h16.348v6.438h-29.944V34.453l4.223-10.102c0.006-0.011,0.012-0.021,0.018-0.031h49.904
		V3.776h-64.441c-3.943,0-5.649,2.12-6.327,3.432l-9.903,17.946l-0.057,0.107c-0.815,1.625-1.229,3.3-1.229,4.977v0.521h-50.058
		l2.679-6.408c0.006-0.011,0.013-0.021,0.018-0.031h46.295V3.776h-60.832c-3.943,0-5.65,2.121-6.328,3.433l-9.903,17.945
		l-0.056,0.107c-0.815,1.625-1.229,3.3-1.229,4.977v48.048h78.347V57.742h-50.536v-6.438h42.139l9.464-18.865v39.173
		c0,4.117,2.562,6.675,6.686,6.675H282.9c4.124,0,6.686-2.558,6.687-6.675V30.759h-33.853L245.427,51.304z M190.759,45.15h-44.494
		v18.745H196.8v8.237H130.76V30.238c0-0.705,0.18-1.415,0.551-2.169l9.895-17.931l0.048-0.089c0.079-0.034,0.329-0.12,0.869-0.12
		H196.8v8.238h-40.24c-2.388,0-4.326,1.241-5.457,3.496l-6.383,15.249h50.171L190.759,45.15z M283.433,36.912v34.699
		c0,0.229-0.019,0.384-0.038,0.482c-0.101,0.02-0.26,0.039-0.496,0.039h-72.194c-0.236,0-0.395-0.02-0.495-0.039
		c-0.019-0.099-0.038-0.254-0.038-0.482V30.238c0-0.705,0.181-1.415,0.552-2.169l9.895-17.931l0.047-0.088
		c0.078-0.034,0.329-0.12,0.869-0.12h58.288v8.238h-43.849c-2.388,0-4.327,1.241-5.458,3.496l-4.839,11.556v30.677h42.25V45.15
		h-12.53l4.133-8.238H283.433z"/>
	<path fill="#FFFFFF" d="M83.833,5.364V3.776H53.684c-4.517,0-7.18,5.134-8.111,6.987L4.925,78.286h28.861l31.354-53.31
		c0.468-0.415,0.896-0.656,1.178-0.656h5.386L39.217,78.286h28.84L95.729,32.32v45.966h27.811V3.776H87.977
		C86.36,3.776,84.981,4.434,83.833,5.364z M66.318,18.167c-2.042,0-3.987,0.907-5.782,2.696l-0.28,0.279l-29.991,50.99H15.811
		l35.094-58.296l0.114-0.208c1.543-3.076,2.569-3.633,2.716-3.699H77.68v8.238H66.318z M117.387,9.93v62.203h-15.505V10.168
		L64.579,72.133H50.103L82.59,18.167h-0.026l2.691-4.427l0.056-0.112c1.543-3.076,2.569-3.633,2.716-3.699H117.387z"/>
	<path fill="#FFFFFF" d="M335.24,3.776h-44.588v74.51h27.812V59.688l2.329,4.208h26.369l9.927,14.391h32.734l-46.514-67.607
		C342.341,8.759,339.69,3.776,335.24,3.776z M360.319,72.133l-9.927-14.391H324.42l-4.56-8.237h24.765l-19.646-28.442l-0.2-0.199
		c-1.795-1.789-3.74-2.696-5.781-2.696h-6.687v53.965h-15.505V9.93h38.384c0.147,0.066,1.172,0.624,2.716,3.699L338,13.818
		l40.12,58.314H360.319z M318.464,43.352V24.32h0.533c0.297,0,0.757,0.268,1.254,0.725l12.645,18.306H318.464z"/>
	<path fill="#FFFFFF" d="M729.65,51.579h43.739l10.552-21.174h-52.759l2.86-6.889c0.023-0.042,0.044-0.076,0.062-0.101h47.943V2.242
		h-62.96c-4.035,0-5.775,2.175-6.464,3.519l-10.269,18.732l-0.056,0.106c-0.835,1.676-1.259,3.401-1.259,5.127v50.016h81.007V58.568
		H729.65V51.579z M775.895,64.722v8.867h-68.7V29.727c0-0.76,0.192-1.524,0.589-2.333l10.26-18.718l0.057-0.107
		c0.005-0.01,0.008-0.017,0.01-0.02c0.043-0.025,0.297-0.153,0.979-0.154h56.807v8.868h-41.836c-2.435,0-4.409,1.272-5.561,3.582
		l-6.533,15.714H774l-4.419,8.868h-46.084v19.296H775.895z"/>
	<path fill="#FFFFFF" d="M671.1,27.837l-19.379,28.355l-19.38-28.355V2.242h-28.609v29.362c0,3.014,0.412,5.305,1.259,7.005
		l0.074,0.148l26.26,40.985h40.792l26.261-40.985l0.073-0.148c0.847-1.699,1.259-3.991,1.259-7.005V2.242H671.1V27.837z
		 M677.253,8.395h16.303v23.209c0,2.432-0.326,3.612-0.557,4.14l-24.248,37.845H634.69l-24.248-37.845
		c-0.23-0.529-0.558-1.708-0.558-4.14V8.395h16.303v21.344l25.533,37.359l25.532-37.359V8.395z"/>
	<path fill="#FFFFFF" d="M573.791,78.19l-15.634-27.451l13.566-15.807l0.829-3.329l-0.728-2.92l-9.957-20.932l-0.025-0.051
		c-2.249-4.513-5.282-5.459-7.432-5.459h-62.959v77.5h28.609V38.089l25.128,41.653H602.4v-77.5h-28.609V78.19z M548.663,73.589
		l-17.809-29.521h5.779c2.089,0,3.767-0.62,4.986-1.844l8.865-9.999l-4.491-11.268l-0.058-0.115
		c-1.151-2.309-3.126-3.581-5.561-3.581h-26.468v56.327h-16.303V8.395h56.806c0.777,0,1.528,1.26,1.913,2.028l9.68,20.347
		l0.207,0.834l-0.105,0.427L550.666,50.02l13.423,23.569H548.663z M520.062,37.916v-14.5h20.27c0.015,0.023,0.033,0.051,0.053,0.087
		l2.982,7.48l-6.076,6.859c-0.08,0.026-0.279,0.074-0.656,0.074H520.062z M579.944,8.395h16.303v65.194h-16.303V8.395z"/>
	<path fill="#FFFFFF" d="M474.844,7.736l-0.018-0.035c-2.249-4.513-5.282-5.459-7.432-5.459h-65.767v77.5h65.767
		c2.149,0,5.183-0.947,7.432-5.459l14.658-30.362l0.729-2.929l-0.729-2.93L474.844,7.736z M483.667,41.817l-14.355,29.735
		c-0.384,0.769-1.137,2.036-1.917,2.036h-59.613V8.395h59.613c0.78,0,1.533,1.269,1.917,2.036l14.355,29.735l0.206,0.826
		L483.667,41.817z"/>
	<path fill="#FFFFFF" d="M458.95,20.906l-0.03-0.063c-1.151-2.31-3.126-3.582-5.561-3.582h-29.275v47.459h29.276
		c2.375,0,4.328-1.163,5.497-3.275l8.176-17.546l0.725-2.908l-0.726-2.915L458.95,20.906z M461.206,41.839l-7.77,16.692
		c-0.01,0.014-0.018,0.025-0.024,0.036c-0.015,0-0.032,0.001-0.053,0.001h-23.122V23.415h23.077
		c0.022,0.035,0.052,0.083,0.086,0.148l7.807,16.588l0.21,0.84L461.206,41.839z"/>
</g>
</svg>
