<?xml version="1.0" encoding="utf-8"?>
<!-- Generator: Adobe Illustrator 16.0.3, SVG Export Plug-In . SVG Version: 6.00 Build 0)  -->
<!DOCTYPE svg PUBLIC "-//W3C//DTD SVG 1.0//EN" "http://www.w3.org/TR/2001/REC-SVG-20010904/DTD/svg10.dtd">
<svg version="1.0"
	 id="Capa_1" xmlns:dc="http://purl.org/dc/elements/1.1/" xmlns:cc="http://creativecommons.org/ns#" xmlns:rdf="http://www.w3.org/1999/02/22-rdf-syntax-ns#" xmlns:svg="http://www.w3.org/2000/svg" xmlns:sodipodi="http://sodipodi.sourceforge.net/DTD/sodipodi-0.dtd" xmlns:inkscape="http://www.inkscape.org/namespaces/inkscape" inkscape:version="0.92.2 (unknown)" sodipodi:docname="snes.svg"
	 xmlns="http://www.w3.org/2000/svg" xmlns:xlink="http://www.w3.org/1999/xlink" x="0px" y="0px" width="389.021px"
	 height="95.8px" viewBox="0 0 389.021 95.8" enable-background="new 0 0 389.021 95.8" xml:space="preserve">
<sodipodi:namedview  guidetolerance="10" objecttolerance="10" gridtolerance="10" fit-margin-top="0" fit-margin-left="0" showgrid="false" inkscape:cy="47.849996" inkscape:cx="194.55" inkscape:zoom="0.68096783" borderopacity="1" bordercolor="#666666" pagecolor="#ffffff" id="namedview251" fit-margin-bottom="0" fit-margin-right="0" inkscape:window-maximized="0" inkscape:window-y="0" inkscape:window-x="0" inkscape:window-height="480" inkscape:window-width="640" inkscape:current-layer="Capa_1" inkscape:pageshadow="2" inkscape:pageopacity="0">
	</sodipodi:namedview>
<g>
	<path fill="#FFFFFF" d="M194.216,52.362c0-1.216-9.919-17.686-11.042-18.342c-0.468-0.28-0.842-1.872-0.842-2.807
		c0-1.029,1.31-7.581,1.31-7.581c0.374-2.338,2.62-4.303,5.053-4.303c2.434,0,3.369,1.871,2.901,4.303l-1.778,10.481h8.421
		l2.902-15.628c0.748-3.46-1.498-6.268-4.961-6.268l-12.257-0.094c-3.462,0-6.737,2.808-7.392,6.271v0.092v0.095v0.094l-0.094,0.093
		v0.094v0.092l-0.094,0.094v0.094l-0.093,0.095v0.187l-0.093,0.093v0.188v0.279v0.188l-0.094,0.374l-0.093,0.468l-0.094,0.467
		l-0.093,0.468l-0.093,0.468l-0.093,0.469l-0.094,0.467l-0.093,0.468l-0.281,1.123l-0.093,0.563l-0.094,0.467l-0.093,0.468
		l-0.093,0.468l-0.094,0.467l-0.093,0.375l-0.093,0.468l-0.188,0.654l-0.093,0.468v0.094l-0.094,0.095v0.186v0.093l-0.094,0.188
		v0.092v0.094l-0.093,0.092v0.095v0.094c-0.093,1.589,0.188,3.649,0.655,4.022c0.655,3.371,11.884,18.996,11.509,21.336
		c-0.28,2.34-1.684,9.357-1.684,9.357c-0.375,2.34-1.965,4.306-4.398,4.306c-2.339,0-4.023-1.873-3.556-4.306l2.059-11.604h-8.421
		l-2.62,16.094c-0.562,3.275,1.684,5.804,4.959,5.804h11.977c3.275,0,6.457-2.62,7.018-5.804c0,0,3.088-15.065,3.088-16.094
		C194.496,52.547,194.216,52.362,194.216,52.362z"/>
	<path fill="#FFFFFF" d="M282.379,12.218l-12.258-0.094c-3.462,0-6.736,2.808-7.391,6.271v0.092v0.095v0.094l-0.095,0.093v0.094
		v0.092l-0.095,0.094v0.094l-0.093,0.095v0.187l-0.094,0.093v0.188v0.279v0.188l-0.093,0.374l-0.094,0.468l-0.094,0.467
		l-0.094,0.468l-0.093,0.468l-0.094,0.469l-0.095,0.467l-0.093,0.468l-0.281,1.123l-0.093,0.563l-0.094,0.467l-0.095,0.468
		l-0.092,0.468l-0.095,0.467l-0.093,0.375l-0.096,0.468l-0.187,0.654l-0.093,0.468v0.094l-0.094,0.095v0.186v0.093l-0.094,0.188
		v0.092v0.094l-0.094,0.092v0.095v0.094c-0.093,1.589,0.188,3.649,0.656,4.022c0.655,3.371,11.885,18.996,11.508,21.336
		c-0.279,2.34-1.684,9.357-1.684,9.357c-0.372,2.34-1.966,4.306-4.398,4.306c-2.338,0-4.022-1.873-3.555-4.306l2.058-11.604h-8.42
		l-2.622,16.094c-0.561,3.275,1.686,5.804,4.96,5.804h11.978c3.276,0,6.457-2.62,7.019-5.804c0,0,3.088-15.065,3.088-16.094
		c0-1.03-0.281-1.216-0.281-1.216c0-1.216-9.92-17.686-11.041-18.342c-0.468-0.28-0.842-1.872-0.842-2.807
		c0-1.029,1.311-7.581,1.311-7.581c0.375-2.338,2.619-4.303,5.052-4.303c2.434,0,3.369,1.871,2.901,4.303l-1.778,10.481h8.422
		l2.901-15.628C288.087,15.026,285.841,12.218,282.379,12.218z"/>
	<polygon fill="#FFFFFF" points="226.21,12.031 219.848,45.25 215.73,12.125 207.868,12.031 195.799,75.475 204.969,75.475 
		212.36,38.793 215.263,75.475 223.311,75.475 235.381,12.031 	"/>
	<polygon fill="#FFFFFF" points="252.456,46.186 253.765,39.542 244.969,39.542 248.899,19.891 257.697,19.891 259.005,12.031 
		241.975,12.031 229.531,75.475 247.497,75.475 248.808,67.614 240.01,67.614 243.66,46.186 	"/>
	<path fill="#FFFFFF" d="M363.625,12.218l-17.872-0.188L333.68,75.475h18.247c3.276,0,6.457-2.62,7.112-5.804l9.639-51.185
		C369.333,15.026,367.087,12.218,363.625,12.218z M359.788,23.633l-7.861,41.548c-0.468,2.34-2.712,4.306-5.052,4.306h-3.648
		l9.357-50.157h3.648C358.572,19.33,360.162,21.2,359.788,23.633z"/>
	<path fill="#FFFFFF" d="M315.85,63.873l7.86-41.548c0.468-2.34,2.713-4.304,5.053-4.304l12.159-0.012l1.036-5.978H323.71
		c-3.275,0-6.457,2.62-7.111,5.803l-9.639,51.185c-0.656,3.461,1.59,6.269,5.053,6.269l17.873,0.188l1.402-7.373l-11.883,0.073
		C317.066,68.175,315.475,66.305,315.85,63.873z"/>
	<circle fill="#FFFFFF" cx="296.718" cy="44.869" r="5.716"/>
	<path fill="#FFFFFF" d="M71.595,56.89c0-7.07-11.316-12.807-25.307-12.807l-1.301,0.016l-1.284,0.051l-1.266,0.084l-1.246,0.11
		l-1.224,0.144l-1.2,0.169l-1.174,0.203l-1.149,0.228l-1.119,0.261l-1.091,0.279l-1.059,0.313l-1.026,0.33l-0.991,0.355
		l-0.956,0.379l-0.917,0.406l-0.877,0.422l-0.838,0.449l-0.795,0.464l-0.75,0.48l-0.705,0.509l-0.658,0.514l-0.609,0.542
		l-0.559,0.55l-0.506,0.564l-0.453,0.583l-0.397,0.593l-0.341,0.607l-0.282,0.624l-0.222,0.628l-0.161,0.641l-0.098,0.651L21,56.89
		c0,7.098,11.321,12.81,25.288,12.81C60.276,69.7,71.595,63.988,71.595,56.89z"/>
	<path fill="#FFFFFF" d="M94.335,67.148l-1.369,0.018l-1.352,0.051l-1.326,0.092l-1.31,0.118l-1.292,0.145l-1.26,0.186l-1.233,0.211
		l-1.208,0.236l-1.177,0.272l-1.146,0.295L80.55,69.1l-1.079,0.346l-1.042,0.381l-1.003,0.397l-0.965,0.422l-0.923,0.448
		l-0.879,0.465l-0.835,0.489l-0.79,0.508l-0.741,0.522l-0.691,0.55l-0.639,0.566l-0.587,0.575l-0.532,0.599l-0.476,0.611
		l-0.418,0.626l-0.358,0.638l-0.296,0.651l-0.233,0.662l-0.169,0.673l-0.103,0.684l-0.035,0.691c0,7.43,11.898,13.458,26.581,13.458
		c14.677,0,26.599-6.031,26.599-13.458C120.934,73.172,109.012,67.148,94.335,67.148z"/>
	<path fill="#FFFFFF" d="M78.652,50.825v0.287h0.003l1.193-0.076l1.177-0.135l1.158-0.186l1.14-0.246l1.118-0.296l1.099-0.346
		l1.073-0.406l1.048-0.446l1.022-0.499l0.997-0.541l0.963-0.591l0.938-0.625l0.904-0.676l0.87-0.719l0.836-0.751l0.794-0.787
		l0.77-0.827l0.718-0.871l0.684-0.895l0.643-0.93l0.6-0.954l0.548-0.988l0.507-1.023l0.457-1.039l0.414-1.073l0.363-1.09
		l0.304-1.115l0.262-1.141l0.203-1.158l0.144-1.175l0.084-1.191l0.034-1.2c0-13.257-10.765-24.021-24.022-24.021
		c-13.168,0-23.865,10.577-24.021,23.725c0.311-0.018,0.621-0.018,0.954-0.018C67.886,26.804,78.652,37.542,78.652,50.825z"/>
	<path fill="#FFFFFF" d="M124.448,28.071c-12.809,0-23.218,10.317-23.371,23.108c0.304-0.017,0.617-0.017,0.93-0.017
		c12.893,0,23.378,10.478,23.378,23.396v0.287l1.167-0.076l1.141-0.127l1.132-0.186l1.107-0.237l1.09-0.295l1.064-0.338l1.048-0.39
		l1.022-0.439l0.998-0.481l0.963-0.532l0.947-0.574l0.904-0.61l0.878-0.657l0.846-0.693l0.819-0.733l0.777-0.771l0.735-0.812
		l0.71-0.835l0.658-0.878l0.626-0.905l0.582-0.929l0.532-0.964l0.499-0.997l0.447-1.014l0.398-1.04l0.347-1.063l0.304-1.091
		l0.245-1.107l0.202-1.124l0.136-1.147l0.085-1.158l0.034-1.175C147.827,38.548,137.375,28.071,124.448,28.071z"/>
</g>
</svg>
