<?xml version="1.0" encoding="utf-8"?>
<!-- Generator: Adobe Illustrator 16.0.3, SVG Export Plug-In . SVG Version: 6.00 Build 0)  -->
<!DOCTYPE svg PUBLIC "-//W3C//DTD SVG 1.0//EN" "http://www.w3.org/TR/2001/REC-SVG-20010904/DTD/svg10.dtd">
<svg version="1.0" id="Layer_1" xmlns="http://www.w3.org/2000/svg" xmlns:xlink="http://www.w3.org/1999/xlink" x="0px" y="0px"
	 width="287px" height="91px" viewBox="0 0 287 91" enable-background="new 0 0 287 91" xml:space="preserve">
<g>
	<g>
		<path fill="#FFFFFF" d="M6.183,32.471v35.107c0,9.688,7.688,17.549,17.163,17.549h37.618c9.476,0,17.162-7.861,17.162-17.549
			l-0.005-8.97H61.095v3.375c0,4.357-3.118,7.544-7.374,7.544H30.333c-4.251,0-7.368-3.187-7.368-7.544V39.628
			c0-4.357,3.117-7.544,7.368-7.544h21.862c4.256,0,7.375,3.187,7.375,7.544v1.818h17.025l0.006-8.975
			c0-9.688-7.688-17.55-17.162-17.55H23.346C13.871,14.921,6.183,22.784,6.183,32.471z"/>
		<path fill="#FFFFFF" d="M88.552,85.127h54.774c10.156,0,18.688-8.725,18.688-19.112V34.034c0-10.387-8.531-19.112-18.688-19.112
			H88.552V85.127z M105.327,69.527V30.521h30.124c5.263,0,9.531,4.369,9.531,9.756v19.5c0,5.381-4.269,9.75-9.531,9.75H105.327z"/>
		<path fill="#FFFFFF" d="M244.121,23.146c-6.832,0-13.794,3.606-13.794,10.5v6.375l0.068,0.006v9.219h53.381v-9.869h-38.463
			c-4.956-1.262,0.476-5.3,2.994-5.593h23.1c6.832,0,12.369-5.595,12.369-12.481v-6.381c0-6.888-5.537-12.481-12.369-12.481H244.22
			c-6.831,0-13.893,4.03-13.893,10.925v6.375h13.443v-1.294c0-3.094,2.25-5.363,5.318-5.363h17.282c2.956,0,5.149,2.107,5.306,5.032
			c-0.156,2.919-2.35,5.024-5.306,5.024L244.121,23.146z"/>
		<path fill="#FFFFFF" d="M213.814,25.878c5.168-0.388,8.956-2,8.956-7.694v-6.381c0-6.888-5.543-9.362-12.369-9.362h-24.144
			c-6.824,0-13.894,4.03-13.894,10.925v6.375h13.45v-1.294c0-3.094,2.243-5.363,5.313-5.363h14.23c2.957,0,5.151,0.55,5.308,3.469
			c-0.156,2.925-2.351,5.024-5.308,5.024l-11.567,0.007v8.663h13.093c2.957,0,5.149,2.106,5.306,5.031
			c-0.156,2.918-2.349,3.462-5.306,3.462h-15.756c-3.069,0-5.313-2.263-5.313-5.356v-1.3h-13.45v6.381
			c0,6.888,7.069,10.919,13.894,10.919h25.67c7.793-0.138,12.367-4.031,12.367-10.919v-4.818
			C224.295,27.402,219.746,26.072,213.814,25.878z"/>
	</g>
</g>
</svg>
