<?xml version="1.0" encoding="utf-8"?>
<!-- Generator: Adobe Illustrator 16.0.3, SVG Export Plug-In . SVG Version: 6.00 Build 0)  -->
<!DOCTYPE svg PUBLIC "-//W3C//DTD SVG 1.0//EN" "http://www.w3.org/TR/2001/REC-SVG-20010904/DTD/svg10.dtd">
<svg version="1.0"
	 id="Layer_1" xmlns:cc="http://creativecommons.org/ns#" xmlns:dc="http://purl.org/dc/elements/1.1/" xmlns:inkscape="http://www.inkscape.org/namespaces/inkscape" xmlns:rdf="http://www.w3.org/1999/02/22-rdf-syntax-ns#" xmlns:sodipodi="http://sodipodi.sourceforge.net/DTD/sodipodi-0.dtd" xmlns:svg="http://www.w3.org/2000/svg" sodipodi:docname="neogeo.svg" inkscape:version="0.92.2 (unknown)" inkscape:output_extension="org.inkscape.output.svg.inkscape" sodipodi:version="0.32"
	 xmlns="http://www.w3.org/2000/svg" xmlns:xlink="http://www.w3.org/1999/xlink" x="0px" y="0px" width="774.072px" height="110px"
	 viewBox="0 -6.071 774.072 110" enable-background="new 0 -6.071 774.072 110" xml:space="preserve">
<defs>
	
	
		<inkscape:perspective  inkscape:persp3d-origin="580 : 113.33333 : 1" id="perspective2709" inkscape:vp_y="0 : 1000 : 0" sodipodi:type="inkscape:persp3d" inkscape:vp_x="0 : 170 : 1" inkscape:vp_z="1160 : 170 : 1">
		</inkscape:perspective>
</defs>
<sodipodi:namedview  fit-margin-top="0" inkscape:cx="365.12037" pagecolor="#ffffff" gridtolerance="10.0" id="namedview2703" showgrid="false" inkscape:cy="172.81571" fit-margin-left="0" inkscape:zoom="0.95344828" objecttolerance="10.0" bordercolor="#666666" guidetolerance="10.0" borderopacity="1.0" inkscape:pageopacity="0.0" fit-margin-right="0" inkscape:window-width="1280" fit-margin-bottom="0" inkscape:window-y="25" inkscape:current-layer="Layer_1" inkscape:window-x="10" inkscape:window-height="725" inkscape:window-maximized="0" inkscape:pageshadow="2">
	</sodipodi:namedview>
<g id="g168" transform="matrix(0.93403196,0,0,0.93403196,69.305171,27.647346)">
	<g id="g158" transform="translate(1.5605469e-5)">
		<path id="path152" inkscape:connector-curvature="0" fill="#FFFFFF" d="M304.7,32.7h2.399c2.2,0,6.101,0.5,7.7,1.4s2.6,2,3.1,3.1
			c0.5,1.1,0.8,3.7,0.8,7.6V60c0,4.6-4.9,7-7.2,7.5C309.1,68,306.9,68.3,304.6,68.3c-6.4,0-12-1.7-16.7-5.001
			c-4.7-3.4-8.1-8.6-10.199-15.7c-2.1-7.1-3.1-15.4-3.1-24.899c0-7.801,1-15.401,2.899-22.9c1.901-7.4,5.201-13.2,9.8-17.4
			c4.6-4.101,10.401-6.2,17.3-6.2c7.3,0,11.5,1.799,16.9,7.399c5.5,5.7,10.7,12.1,13.8,21.601h4.5V-29.6h-2.5
			c-0.9,2.8-1.9,4.701-3,5.7c-1.101,1-2.3,1.5-3.601,1.5c-0.8,0-3.499-0.9-7.999-2.701c-4.5-1.799-7.801-2.899-9.8-3.3
			c-3.7-0.8-6.6-1.2-11.201-1.2c-14.9,0-27.3,5.1-37.1,15.401C254.7-4,249.8,8.5,249.8,23.4c0,8.301,1.6,15.8,4.8,22.5
			c2.5,5.2,5.999,9.9,10.499,14C269.6,64,274.7,67.4,280.5,69.9c5.8,2.5,13.2,3.799,21.999,3.799c6.901,0,13.6-0.699,20-2.099
			c6.401-1.4,12.601-3.5,18.6-6.4V44.7c0-3.6,0.201-5.9,0.6-6.799c0.701-1.8,1.8-3.001,3.1-3.801c1.301-0.8,5-1.2,8.401-1.5v-3.4
			h-48.5V32.7z"/>
		<path id="path154" inkscape:connector-curvature="0" fill="#FFFFFF" d="M416.1,59.3C410.6,63.5,403.2,65.6,394,65.6H388.8
			c-2.8,0-4.8-0.399-6.1-1.2c-1.2-0.8-2.1-1.799-2.6-3c-0.5-1.2-0.699-4.5-0.699-9.9V24.1c4.7,0,10.199,0.599,12.7,1.799
			c2.5,1.2,4.599,3.6,6.499,7.201c1.901,3.6,3.1,7.5,3.7,13.1h4V-4.5h-4c-0.8,7.6-2.599,12.7-5.4,16.6C394.1,16,389.5,18,383.3,18
			h-3.9v-34c0-5.9,5.199-5.201,5.199-5.201h6.2c7.4,0,12.5,0.4,15.2,1.301c4.6,1.4,8.2,3.7,10.8,6.8c2.5,3.1,4.5,8.2,5.9,15.2h3.3
			v-29h-82.9v3.999h2.6c3.2,0,5.7,0.701,7.501,2c1.3,0.9,2.2,2.201,2.7,3.901c0.2,1,0.4,3.699,0.4,8.199V52.5
			c0,4.899-0.3,7.9-0.8,9.099c-0.701,1.601-1.601,2.8-2.9,3.5c-1.7,1-4,1.5-6.901,1.5h-2.6V71.2h84.3l5.1-31.2h-4.6
			C425.601,48.6,421.6,55.099,416.1,59.3"/>
		<path id="path156" inkscape:connector-curvature="0" fill="#FFFFFF" d="M481.4-28.4c-14.1-0.6-25.999,4-35.7,13.8
			c-9.699,9.8-14.5,22-14.5,36.7c0,13.099,3.7,24.4,11.2,33.899c9.4,12.1,22.7,18.1,40,18.1c17.2,0,30.5-6.3,39.9-19
			C529.4,45.6,533,34.5,533,22c0-14.7-4.8-26.9-14.3-36.7C509-24.4,496.6-29,481.4-28.4 M503.9,50c-2.299,6.799-5.5,11.8-9.699,14.9
			c-3.2,2.4-7.3,3.6-12.2,3.6c-7.2,0-12.799-2.8-16.8-8.5c-5.7-8.1-8.601-20.5-8.601-37.4c0-14.2,1.901-25.1,5.601-32.7
			c4.599-9.2,11.2-13.8,20-13.8c4.799,0,9,1.3,12.6,4c3.6,2.7,6.7,7.3,9,13.7c2.399,6.5,3.499,16.3,3.499,29.3
			C507.4,34.3,506.2,43.2,503.9,50"/>
	</g>
	<path id="path160" inkscape:connector-curvature="0" fill="#FFFFFF" d="M168.4,73.5c17.2,0,30.499-6.299,39.9-18.999
		C215.4,45,219,33.9,219,21.4c0-14.7-4.8-26.9-14.3-36.7c-9.6-9.699-22-14.3-37.2-13.7c-14.1-0.6-26,4-35.7,13.8
		c-9.7,9.8-14.501,22-14.501,36.7c0,13.099,3.7,24.4,11.2,33.899C137.8,67.5,151.2,73.5,168.4,73.5 M148.2-10.4
		c4.6-9.2,11.201-13.8,20-13.8c4.8,0,9,1.3,12.601,4c3.6,2.7,6.7,7.3,9,13.7C192.2,0,193.3,9.8,193.3,22.8
		c0,11-1.199,19.901-3.499,26.7c-2.3,6.8-5.501,11.8-9.7,14.9C176.9,66.8,172.8,68,167.901,68c-7.201,0-12.8-2.8-16.801-8.5
		c-5.7-8.1-8.6-20.5-8.6-37.4C142.6,8,144.4-2.9,148.2-10.4"/>
	<path id="path162" inkscape:connector-curvature="0" fill="#FFFFFF" d="M118.6,39.2H114c-2.401,8.7-6.4,15.1-11.9,19.4
		c-5.5,4.2-12.9,6.3-22,6.3H74.9c-2.8,0-4.8-0.4-6.101-1.1C67.5,63,66.7,62,66.2,60.8C65.7,59.601,65.5,56.3,65.5,50.9V23.3
		c4.7,0,10.2,0.6,12.7,1.8c2.5,1.2,4.6,3.6,6.5,7.2C86.6,35.9,87.8,39.8,88.4,45.4h4V-5.3h-4C87.6,2.3,85.8,7.4,83,11.3
		c-2.8,3.9-7.4,5.9-13.6,5.9h-3.9v-34C65.5-22.7,70.7-22,70.7-22h6.2c7.5,0,12.499,0.4,15.2,1.301c4.599,1.4,8.2,3.7,10.799,6.8
		c2.5,3.1,4.5,8.199,5.9,15.2h3.301v-29H29.2v3.999h2.6c3.199,0,5.7,0.701,7.5,2c1.301,0.9,2.2,2.2,2.701,3.9
		C42.2-16.8,42.4-14.1,42.4-9.6V51.7c0,4.899-0.3,7.9-0.8,9.099c-0.699,1.601-1.6,2.8-2.9,3.5c-1.7,1-3.999,1.499-6.899,1.499h-2.6
		v4.6h84.3L118.6,39.2z"/>
	<path id="path164" inkscape:connector-curvature="0" fill="#FFFFFF" d="M-40.5,65.7H-42.7c-3.199,0-6.1-1.001-8.6-3.001
		C-53.8,60.7-55,56.9-55,51.3V-7.9l64.1,80h4.201V-9.5c0-4.6,0.399-6,1.199-7.9c0.8-1.9,1.8-3.3,3.2-4.1c1.4-0.801,4-1.5,7.999-2.1
		v-4.1H-6.1v4.1c5.201-0.1,9,1.3,11.201,4.1C6.7-17.4,7.5-15.4,7.5-9.5v42.7l-49.9-60.899h-30.4v3.3c2.9,0.099,3.001,1.1,4.5,1.9
		l8.101,8.2v65.7c0,5.199-1.001,8.9-3.1,11c-2,2.2-5.7,3.3-10.901,3.3v4h33.6L-40.5,65.7z"/>
	<path id="path166" inkscape:connector-curvature="0" fill="#FFFFFF" d="M246.3,22.2c0,6.5-5.3,11.8-11.8,11.8
		c-6.5,0-11.8-5.3-11.8-11.8s5.3-11.8,11.8-11.8C241.1,10.4,246.3,15.7,246.3,22.2z"/>
</g>
<g>
	<path fill="#FFFFFF" d="M623.339,99.965c-9.872,0-18.782-2.113-26.482-6.282c-7.753-4.197-13.819-10.312-18.029-18.174
		c-4.178-7.804-6.296-16.228-6.296-25.039c0-9.283,2.346-18.207,6.973-26.525c4.638-8.334,10.991-14.896,18.887-19.503
		c7.891-4.604,16.396-6.938,25.279-6.938c6.544,0,13.527,1.499,20.757,4.454c5.455,2.238,6.781,2.351,6.991,2.351
		c0.862,0,1.57-0.321,2.229-1.012c0.724-0.759,1.236-2.16,1.483-4.053l0.228-1.741h6.34v36.636h-6.179l-0.355-1.555
		c-1.837-8.05-5.271-14.277-10.21-18.507c-4.971-4.255-10.438-6.324-16.713-6.324c-5.151,0-9.95,1.578-14.261,4.69
		c-4.345,3.138-7.565,7.302-9.575,12.377c-2.676,6.724-4.032,14.324-4.032,22.594c0,8.198,0.997,15.753,2.965,22.456
		c1.906,6.496,4.896,11.444,8.885,14.708c3.939,3.225,9.173,4.859,15.555,4.859c5.284,0,10.185-1.225,14.564-3.64
		c4.457-2.457,9.264-6.805,14.288-12.919l3.545-4.315v14.485l-0.523,0.572c-5.193,5.685-10.703,9.873-16.378,12.45
		C637.581,98.655,630.874,99.965,623.339,99.965z M623.67,1.503c-8.166,0-15.992,2.151-23.264,6.394
		c-7.267,4.24-13.123,10.294-17.406,17.993c-4.292,7.716-6.469,15.986-6.469,24.581c0,8.146,1.959,15.935,5.822,23.15
		c3.834,7.16,9.354,12.727,16.407,16.545c7.109,3.849,15.378,5.8,24.578,5.8c6.961,0,13.111-1.189,18.279-3.536
		c4.992-2.267,9.887-5.945,14.556-10.938v-2.002c-4.1,4.419-8.09,7.711-11.901,9.813c-4.979,2.745-10.528,4.137-16.496,4.137
		c-7.33,0-13.415-1.939-18.088-5.764c-4.624-3.783-8.052-9.394-10.189-16.677c-2.075-7.068-3.127-15.003-3.127-23.583
		c0-8.779,1.451-16.877,4.314-24.07c2.293-5.792,5.979-10.553,10.951-14.145c5.007-3.615,10.593-5.447,16.603-5.447
		c7.169,0,13.667,2.451,19.314,7.285c4.533,3.884,7.934,9.173,10.143,15.766V4.467c-0.332,0.601-0.717,1.129-1.156,1.59
		c-1.424,1.494-3.147,2.251-5.123,2.251c-0.953,0-2.782-0.301-8.507-2.649C636.167,2.901,629.692,1.503,623.67,1.503z"/>
	<path fill="#FFFFFF" d="M709.101,97.812h-42.199v-6.569h4.98c2.218,0,3.881-0.332,4.944-0.987c1.051-0.646,1.804-1.504,2.302-2.619
		c0.049-0.133,0.423-1.427,0.423-7.934V17.765c0-6.166-0.408-7.844-0.583-8.279c-0.319-0.79-1.038-1.53-2.135-2.2
		c-1.154-0.704-2.82-1.061-4.951-1.061h-4.98v-6.569h42.199c10.974,0,19.97,1.605,26.74,4.771c8.351,3.918,14.772,9.93,19.09,17.868
		c4.27,7.855,6.435,16.844,6.435,26.717c0,6.822-1.065,13.208-3.167,18.98c-2.106,5.788-4.887,10.653-8.264,14.462
		c-3.372,3.801-7.318,6.895-11.73,9.195c-4.366,2.277-9.75,4.058-16.001,5.292C719.369,97.526,715.078,97.812,709.101,97.812z
		 M678.67,93.812h30.432c5.622,0,9.765-0.267,12.311-0.792c5.894-1.163,10.915-2.817,14.943-4.918
		c3.979-2.074,7.54-4.868,10.588-8.303c3.041-3.43,5.563-7.862,7.498-13.176c1.94-5.332,2.925-11.259,2.925-17.612
		c0-9.198-2.001-17.544-5.948-24.806c-3.902-7.173-9.713-12.609-17.272-16.157c-6.233-2.915-14.66-4.393-25.044-4.393h-30.558
		c0.127,0.069,0.252,0.141,0.373,0.215c1.847,1.127,3.111,2.513,3.761,4.118c0.407,1.011,0.874,3.034,0.874,9.776v61.938
		c0,6.771-0.377,8.604-0.745,9.506c-0.851,1.907-2.148,3.386-3.882,4.453C678.841,93.713,678.756,93.763,678.67,93.812z
		 M710.624,92.674c-2.636,0-4.654-0.43-6.172-1.313c-1.21-0.668-2.111-1.684-2.638-2.998c-0.333-0.827-0.674-2.414-0.674-7.896
		V5.014L703.82,5c7.374,0,12.599,0.74,15.971,2.262c4.909,2.22,8.952,6.407,12.021,12.443c3.749,7.479,5.647,17.523,5.647,29.862
		c0,15.369-2.807,26.938-8.342,34.384C724.856,89.736,718.633,92.674,710.624,92.674z M705.14,9.009v71.458
		c0,5.147,0.321,6.24,0.386,6.407c0.181,0.449,0.466,0.769,0.898,1.008c0.644,0.374,1.854,0.792,4.199,0.792
		c6.762,0,11.759-2.323,15.277-7.102c5.017-6.749,7.558-17.515,7.558-32.005c0-11.711-1.756-21.151-5.219-28.059
		c-2.641-5.195-6.039-8.765-10.096-10.601C715.528,9.727,711.157,9.089,705.14,9.009z"/>
</g>
</svg>
