<?xml version="1.0" encoding="utf-8"?>
<!-- Generator: Adobe Illustrator 24.1.0, SVG Export Plug-In . SVG Version: 6.00 Build 0)  -->
<!DOCTYPE svg PUBLIC "-//W3C//DTD SVG 1.1//EN" "http://www.w3.org/Graphics/SVG/1.1/DTD/svg11.dtd" [
	<!ENTITY ns_extend "http://ns.adobe.com/Extensibility/1.0/">
	<!ENTITY ns_ai "http://ns.adobe.com/AdobeIllustrator/10.0/">
	<!ENTITY ns_graphs "http://ns.adobe.com/Graphs/1.0/">
	<!ENTITY ns_vars "http://ns.adobe.com/Variables/1.0/">
	<!ENTITY ns_imrep "http://ns.adobe.com/ImageReplacement/1.0/">
	<!ENTITY ns_sfw "http://ns.adobe.com/SaveForWeb/1.0/">
	<!ENTITY ns_custom "http://ns.adobe.com/GenericCustomNamespace/1.0/">
	<!ENTITY ns_adobe_xpath "http://ns.adobe.com/XPath/1.0/">
]>
<svg version="1.1" id="Layer_1" xmlns:x="&ns_extend;" xmlns:i="&ns_ai;" xmlns:graph="&ns_graphs;"
	 xmlns="http://www.w3.org/2000/svg" xmlns:xlink="http://www.w3.org/1999/xlink" x="0px" y="0px" width="1382.4px"
	 height="241.3px" viewBox="0 0 1382.4 241.3" enable-background="new 0 0 1382.4 241.3" xml:space="preserve">
<metadata><?xpacket begin="﻿" id="W5M0MpCehiHzreSzNTczkc9d"?>
<x:xmpmeta xmlns:x="adobe:ns:meta/" x:xmptk="Adobe XMP Core 5.6-c148 79.164050, 2019/10/01-18:03:16        ">
   <rdf:RDF xmlns:rdf="http://www.w3.org/1999/02/22-rdf-syntax-ns#">
      <rdf:Description rdf:about=""
            xmlns:xmp="http://ns.adobe.com/xap/1.0/"
            xmlns:xmpGImg="http://ns.adobe.com/xap/1.0/g/img/"
            xmlns:xmpTPg="http://ns.adobe.com/xap/1.0/t/pg/"
            xmlns:stDim="http://ns.adobe.com/xap/1.0/sType/Dimensions#"
            xmlns:xmpG="http://ns.adobe.com/xap/1.0/g/"
            xmlns:dc="http://purl.org/dc/elements/1.1/"
            xmlns:xmpMM="http://ns.adobe.com/xap/1.0/mm/"
            xmlns:stRef="http://ns.adobe.com/xap/1.0/sType/ResourceRef#"
            xmlns:stEvt="http://ns.adobe.com/xap/1.0/sType/ResourceEvent#">
         <xmp:CreatorTool>Adobe Illustrator 24.1 (Windows)</xmp:CreatorTool>
         <xmp:CreateDate>2020-08-28T14:16:58-04:00</xmp:CreateDate>
         <xmp:MetadataDate>2020-08-28T14:16:58-04:00</xmp:MetadataDate>
         <xmp:ModifyDate>2020-08-28T14:16:58-04:00</xmp:ModifyDate>
         <xmp:Thumbnails>
            <rdf:Alt>
               <rdf:li rdf:parseType="Resource">
                  <xmpGImg:width>256</xmpGImg:width>
                  <xmpGImg:height>44</xmpGImg:height>
                  <xmpGImg:format>JPEG</xmpGImg:format>
                  <xmpGImg:image>/9j/4AAQSkZJRgABAgEASABIAAD/7QAsUGhvdG9zaG9wIDMuMAA4QklNA+0AAAAAABAASAAAAAEA&#xA;AQBIAAAAAQAB/+4ADkFkb2JlAGTAAAAAAf/bAIQABgQEBAUEBgUFBgkGBQYJCwgGBggLDAoKCwoK&#xA;DBAMDAwMDAwQDA4PEA8ODBMTFBQTExwbGxscHx8fHx8fHx8fHwEHBwcNDA0YEBAYGhURFRofHx8f&#xA;Hx8fHx8fHx8fHx8fHx8fHx8fHx8fHx8fHx8fHx8fHx8fHx8fHx8fHx8fHx8f/8AAEQgALAEAAwER&#xA;AAIRAQMRAf/EAaIAAAAHAQEBAQEAAAAAAAAAAAQFAwIGAQAHCAkKCwEAAgIDAQEBAQEAAAAAAAAA&#xA;AQACAwQFBgcICQoLEAACAQMDAgQCBgcDBAIGAnMBAgMRBAAFIRIxQVEGE2EicYEUMpGhBxWxQiPB&#xA;UtHhMxZi8CRygvElQzRTkqKyY3PCNUQnk6OzNhdUZHTD0uIIJoMJChgZhJRFRqS0VtNVKBry4/PE&#xA;1OT0ZXWFlaW1xdXl9WZ2hpamtsbW5vY3R1dnd4eXp7fH1+f3OEhYaHiImKi4yNjo+Ck5SVlpeYmZ&#xA;qbnJ2en5KjpKWmp6ipqqusra6voRAAICAQIDBQUEBQYECAMDbQEAAhEDBCESMUEFURNhIgZxgZEy&#xA;obHwFMHR4SNCFVJicvEzJDRDghaSUyWiY7LCB3PSNeJEgxdUkwgJChgZJjZFGidkdFU38qOzwygp&#xA;0+PzhJSktMTU5PRldYWVpbXF1eX1RlZmdoaWprbG1ub2R1dnd4eXp7fH1+f3OEhYaHiImKi4yNjo&#xA;+DlJWWl5iZmpucnZ6fkqOkpaanqKmqq6ytrq+v/aAAwDAQACEQMRAD8A9U4q7FXYq7FXYq7FXYq7&#xA;FXYq7FXYq7FXYq7FXYq7FXYq7FXYq7FXYq7FXYq7FXYq7FXYq7FXYq7FXYq7FXYq7FXYq7FXYq7F&#xA;XYq7FXYq7FXYq7FXYq7FXYq7FXYq7FXYq7FXYq7FXYq7FXYq7FXYq7FXYq7FXYq7FXYq7FXYq7FX&#xA;Yq7FXYq7FXYq7FXYq7FXYq7FXYq7FXYq7FXYq7FXYq7FXYq7FXYq7FXYq7FXYq7FXYq7FXYq7FXY&#xA;q7FXYq7FXYq7FXYq7FXYq7FXYq7FXYq7FXYq7FXYq7FXYq7FXYq7FXYq7FXYq7FXYq7FXYq7FXYq&#xA;7FXYq7FXYq7FXYq7FXYq7FXYq7FXYq7FXYq7FXYq7FXYq7FXYq7FXYq7FXYq7FXYq7FXYq7FXYq7&#xA;FXYq7FXYq7FXYq7FXYq7FXYq7FXYq7FXYq7FXYq7FXYq7FXYq7FXYq7FXYq7FXYq7FXYq7FXYq7F&#xA;XYq7FX//2Q==</xmpGImg:image>
               </rdf:li>
            </rdf:Alt>
         </xmp:Thumbnails>
         <xmpTPg:MaxPageSize rdf:parseType="Resource">
            <stDim:w>1382.430029</stDim:w>
            <stDim:h>241.273684</stDim:h>
            <stDim:unit>Points</stDim:unit>
         </xmpTPg:MaxPageSize>
         <xmpTPg:NPages>1</xmpTPg:NPages>
         <xmpTPg:HasVisibleTransparency>False</xmpTPg:HasVisibleTransparency>
         <xmpTPg:HasVisibleOverprint>False</xmpTPg:HasVisibleOverprint>
         <xmpTPg:SwatchGroups>
            <rdf:Seq>
               <rdf:li rdf:parseType="Resource">
                  <xmpG:groupName>Default Swatch Group</xmpG:groupName>
                  <xmpG:groupType>0</xmpG:groupType>
               </rdf:li>
            </rdf:Seq>
         </xmpTPg:SwatchGroups>
         <dc:format>image/svg+xml</dc:format>
         <xmpMM:DerivedFrom rdf:parseType="Resource">
            <stRef:instanceID>xmp.iid:e920ee6e-490e-6543-8099-9adf4f94badb</stRef:instanceID>
            <stRef:documentID>xmp.did:e920ee6e-490e-6543-8099-9adf4f94badb</stRef:documentID>
            <stRef:originalDocumentID>xmp.did:d3b8f728-1040-c345-8bca-0e281cafa9a8</stRef:originalDocumentID>
         </xmpMM:DerivedFrom>
         <xmpMM:DocumentID>xmp.did:fc499198-bc23-cd4d-8d05-6c20d5eac590</xmpMM:DocumentID>
         <xmpMM:InstanceID>xmp.iid:fc499198-bc23-cd4d-8d05-6c20d5eac590</xmpMM:InstanceID>
         <xmpMM:OriginalDocumentID>xmp.did:d3b8f728-1040-c345-8bca-0e281cafa9a8</xmpMM:OriginalDocumentID>
         <xmpMM:History>
            <rdf:Seq>
               <rdf:li rdf:parseType="Resource">
                  <stEvt:action>saved</stEvt:action>
                  <stEvt:instanceID>xmp.iid:d3b8f728-1040-c345-8bca-0e281cafa9a8</stEvt:instanceID>
                  <stEvt:when>2020-08-28T13:58:21-04:00</stEvt:when>
                  <stEvt:softwareAgent>Adobe Illustrator 24.1 (Windows)</stEvt:softwareAgent>
                  <stEvt:changed>/</stEvt:changed>
               </rdf:li>
               <rdf:li rdf:parseType="Resource">
                  <stEvt:action>saved</stEvt:action>
                  <stEvt:instanceID>xmp.iid:fc499198-bc23-cd4d-8d05-6c20d5eac590</stEvt:instanceID>
                  <stEvt:when>2020-08-28T14:16:58-04:00</stEvt:when>
                  <stEvt:softwareAgent>Adobe Illustrator 24.1 (Windows)</stEvt:softwareAgent>
                  <stEvt:changed>/</stEvt:changed>
               </rdf:li>
            </rdf:Seq>
         </xmpMM:History>
      </rdf:Description>
   </rdf:RDF>
</x:xmpmeta>
                                                                                                    
                                                                                                    
                                                                                                    
                                                                                                    
                                                                                                    
                                                                                                    
                                                                                                    
                                                                                                    
                                                                                                    
                                                                                                    
                                                                                                    
                                                                                                    
                                                                                                    
                                                                                                    
                                                                                                    
                                                                                                    
                                                                                                    
                                                                                                    
                                                                                                    
                                                                                                    
                           
<?xpacket end="w"?>
	</metadata>
<g>
	<path fill="#FFFFFF" d="M1233.5,7c3.6,3.1,5.7,6.6,2.4,11.5c0.8,0.2,1.6,0.4,2.5,0.4c8.7,0.2,11.1,3.8,8.1,12.1
		c-4,11.1-8.2,22.2-12,33.3c-1.4,4-3.6,5.7-8,5.7c-38.2-0.2-76.3-0.1-114.5-0.1c-7.6,0-10.8,2.2-13.3,9.3c-12.9,37-26,74-38.7,111.1
		c-1.8,5.1-4.8,7.4-9.8,7.5c-13.2,0.1-26.3,0.2-39.5,0c-6.8-0.1-8.9-2.7-9.1-9.5c0-1.1-1-2.3-1.8-3.9c-7,9.4-14.8,13.9-26,13.7
		c-30.3-0.6-60.7-0.2-91-0.2c-6.4,0.2-12.4-3-15.9-8.4c-2.6-3.8-4.3-7.8-8.9-10.4c-5.3-3.1-6.1-9.3-6.1-15.5
		c-1.7,4.5-3.2,9.1-5.1,13.5c-1.4,3.5-3.1,7-5,10.3c-4.5,7.4-12.2,10.2-20,10.3c-51.7,0.4-103.3,0.2-155,0.2c-5.6,0-8-3.1-7.1-8.7
		c0.2-1.1,0.3-2.3,0.5-3.4c-5.8-0.4-6-0.5-7.7,5.1c-1.6,5.3-4.5,7.4-10.1,7.1c-8.3-0.4-16.7-0.1-25-0.1c-8,0-10.9-4-8.7-11.8
		c0.1-0.4,0-1-0.6-0.1c-3.1-1-6.7-1.4-9.3-3.2s-2-4.9-0.9-8.1c7.7-22,15.2-44.2,22.7-66.3c0.7-2,1.7-4,2.8-6.7
		c-11.5,0-22.6-0.2-33.6,0.2c-1.6,0-4,2.5-4.6,4.3c-9.6,28.5-19,57.1-28.3,85.7c-1.4,4.2-3.7,5.9-7.9,5.8c-10.3-0.1-20.7,0-31-0.1
		c-6.8,0-8.5-2.2-6.8-8.9c0.3-1.1,0.4-2.2,0.6-2.9l-8.8-1.6c-0.5,1.4-1.1,3.6-1.8,5.7c-2.6,7.1-3.4,7.7-10.8,7.7h-73.6
		c-9,0-18,0.5-27-0.1c-10.9-0.7-19.4-5.7-24.1-16.1c-0.3-0.9-0.8-1.7-1.5-2.3c-7.8-4-11.8-12.8-9.8-21.3c0.8-3.5,1.8-7,2.8-11
		c-1.9-0.1-3.4-0.2-5-0.2c-22.7,0-45.3,0.2-68-0.1c-4.4-0.1-5.6,1.8-6.8,5.3c-4.6,13.2-9.5,26.3-14.2,39.4c-1.7,4.7-5.2,6.4-9.9,6.5
		c-8.5,0-17,0.1-25.5,0c-8.9-0.1-10.9-2.8-9-11.4c-0.6-0.2-1.2-0.4-1.8-0.4c-8.7-0.4-10.8-2.8-8-10.9c4.3-12.4,9.4-24.6,13.8-37
		c8.6-24.2,16.9-48.4,25.2-72.6c0.9-2.5,1.6-5,2.4-7.5c2.7-7.7,4.1-8.7,12.3-8.7c31.3,0,62.7-0.3,94,0.2
		c10.6,0.2,20.4,3.4,24.5,15.1c0.5,1.4,2,2.5,4,4.8c0.8-7.7,3.4-13.3,9-15.9c5.2-2.4,10.8-3.8,16.6-4c30.5-0.4,61-0.4,91.5,0
		c8.4,0.1,17,2,20.7,10.9c2.8,6.6,10.6,8.5,12.4,16.9c2.8-7.8,5.1-14,7.3-20.3s3.6-7.6,10.4-7.6c20.5,0,41,0,61.5,0
		c13.7,0,27.3-0.2,41,0.1c7.4,0.1,14.1,2.5,18.6,8.9c1,1.3,1,3.3,1.5,4.9c0.2,0.7,0.6,1.3,1.1,1.8c2.8,2.4,5.7,4.7,8.9,7.4
		c2.8-7.7,5.6-15.3,8.3-22.8c4.5-12.6,8.8-25.3,13.4-37.9c0.6-1.7,2.3-3,3.6-4.6h145c1.4,0.5,2.7,1.1,4.1,1.6
		c7.3,2.6,13.4,6.6,16.6,14.1c-0.8,0-1.6-0.2-2.3-0.6c-7.8-4-15.3-9.3-24.3-9.3c-44.5-0.3-89-0.1-133.5-0.2c-2.8,0-3.9,1-4.7,3.8
		c-2,6.8-4.8,13.4-7,20.2c-5.5,16.8-10.8,33.6-16.1,50.5c-0.8,2.7-0.7,5.6-1.6,8.3c-6.8,19.6-13.7,39.2-20.6,58.7
		c-2.9,8.3-5.8,16.6-8.7,24.9l1.2,1.1c1.3-0.9,3.2-1.4,3.7-2.6c2.3-5.6,4.2-11.4,6.2-17.1c6.6-18.7,13.2-37.4,19.8-56.1
		c9.1-25.7,18.4-51.2,27.2-76.9c2.1-6.1,5.1-8.8,12.3-8.8c37.7,0.2,75.3-0.1,113,0.2c9.2,0.1,18.5-1.5,27.6,2.1
		c8.1,3.2,16,6.9,18,16.1c1.8,7.9,1.9,16.2,2.7,24.4c0-2,0.6-3.9,1.7-5.5c3.6-5.1,9.3-6.5,14.9-6.6c31.7-0.3,63.3-0.3,95,0
		c7.8,0.1,15.6,3.1,18.4,10.6c2.3,6.1,8,7.6,10.6,12.5c0.2-2.9-0.2-5.6,0.6-7.9c3.5-10.3,7.4-20.5,11-30.9c3.1-9,8.3-16.3,16.6-20.9
		c4.3-2.4,9-3.9,13.6-5.8L1233.5,7z M1002.4,178.3l0.9,0.3c10.7-29.5,21.5-59.1,32.2-88.6c5.5-15.2,10.6-30.5,16.2-45.7
		c5.5-15.3,20-25.5,36.3-25.5c48.3-0.1,96.5,0.1,144.8,0.2c0.6,0,1.2-0.1,1.7-0.3v-0.4l-3.8-0.5c0.2-1.7,0.4-3.2,0.5-4.6
		c-0.4-0.2-0.9-0.4-1.3-0.5c-50.5,0-100.9-0.3-151.4,0.1c-14.4,0.1-25.4,7.4-30.9,21.2c-4.3,10.8-8.2,21.7-11.9,32.7
		c-1.4,4.5-2.4,9.2-3.1,13.9c-0.5,3.4,0.3,7.1-0.6,10.2c-4.2,13.7-8.7,27.3-13.4,40.9C1013.4,147.3,1007.8,162.7,1002.4,178.3z
		 M512.9,179.6c4.3-11.9,8.5-23.5,12.6-35.1c8.8-25,17.6-50,26.4-75.1c2.6-7.4,4.1-8.4,11.8-8.4l100,0.1c1.3,0,2.7-0.2,4-0.4
		l0.3-1.9c-4.5-1.1-9-3.2-13.4-3.2c-33.2-0.3-66.3,0-99.5-0.3c-5.3,0-7.1,2-8.6,6.5c-6.7,20.4-13.5,40.7-20.5,61
		c-6.3,18-12.9,36-19.3,54c-0.1,1-0.1,1.9,0,2.9L512.9,179.6z M1011.8,61c0.2-0.6,0.4-1.3,0.6-1.9c-4.2-1.2-8.3-3.4-12.5-3.5
		c-31.3-0.3-62.7-0.2-94-0.2c-7.4,0-14,4.6-16.6,11.5c-2.4,6.4-4.5,12.9-6.8,19.3c-6.6,18.6-13.2,37.3-19.7,55.9
		c-2,5.8-3.7,11.7-5.1,17.6c-1,4.4-0.2,8.9,2.2,13.9c0.8-1.6,1.2-2.2,1.4-2.8c6.3-18.4,12.6-36.7,18.9-55.1
		c3.6-10.6,7.2-21.2,10.9-31.8c6.1-18,12.8-22.8,31.8-22.9c12-0.1,24-0.1,36-0.1C976.6,61,994.2,61,1011.8,61z M213.1,178.7
		c4.2,1.9,7.2,1.5,8.8-3.1c3.5-10.2,7.1-20.4,10.6-30.6c2.9-8.3,5.7-16.7,8.6-25c5.8-16.4,11.9-32.8,17.5-49.3
		c2.5-7.2,5.2-9.7,13-9.7c28.3,0,56.6,0,84.9,0h13.7l0.4-1.8c-4.1-1.2-8.2-3.5-12.3-3.5c-32.8-0.3-65.6-0.3-98.4-0.1
		c-1.5,0-3.9,1.9-4.4,3.4c-9.5,26.6-18.7,53.2-28,79.8C222.8,152,217.9,165.2,213.1,178.7z M917.1,145.1c10.6,0,20.2-0.2,29.9,0.1
		c4.3,0.1,6.1-1.9,7.4-5.7c3.8-11.3,7.8-22.6,11.9-33.8c0.5-1.3,1.6-2.4,2.5-3.7c-10.3,0-21.2,0.2-32.1-0.1c-4.2-0.1-7,0.7-7.8,5.5
		c-0.4,2.7-1.8,5.3-2.7,8C923.1,125,920.2,134.7,917.1,145.1L917.1,145.1z M514.8,60.9l0.4-2c-4.4-1.2-8.9-3.3-13.3-3.3
		c-31.6-0.3-63.3-0.2-94.9-0.1c-3.3,0.1-6.5,1-9.5,2.5c-5.3,2.6-8.9,11.6-7.1,16.2c0.9,2.2,1.6,4.6,2.5,7.2c0.9-1.4,2.2-2.5,2.3-3.8
		c1.1-10.2,13.6-16.7,22.4-16.7c30,0.1,60,0,89.9,0L514.8,60.9z M913.7,157c14.5,0,28.6-0.2,42.8,0.1c4.6,0.1,6.5-1.9,7.8-5.7
		c3.8-11.1,7.7-22.1,11.4-33.2c1.7-4.9,3.3-9.9,5-15.2c-4.5-0.7-7.5-1.1-9,4c-3.6,11.7-7.8,23.2-11.7,34.8c-2.2,6.5-6,9.4-12.9,9.4
		c-9.2,0-18.3,0.2-27.5-0.1C915.8,151,913.9,152.5,913.7,157z M602.2,179c4.4,1.5,7.5,1.3,9.1-3.4c5.1-15.1,10.4-30.2,15.6-45.3
		l9.4-27.3c-4.5-1-7.4-1.1-9.1,4C619.1,131,610.7,154.7,602.2,179z M824.7,70.5h-64.6v0.6h54.1c-1.6,1.4-3.6,2.3-5.8,2.3
		c-15.3,0.2-30.6,0.3-46,0.3c-4,0-5.5,1.9-5.7,5.4c0.5,0.3,0.8,0.7,1.1,0.7c18.5,0,37,0,55.5-0.3C822.3,79.4,822.2,79.1,824.7,70.5z
		 M733.8,147h5.2c16.1,0,32.3,0,48.5,0c9.6,0,11.6-1.2,14.9-10.4c0.5-1.5-0.3-3.5-0.5-5.2c-2.2,0.6-5.4,0.5-6.4,2
		c-3.1,4.6-8.3,7.4-13.9,7.3c-14,0.2-28,0.4-42,0.2C735.5,140.8,733.9,142.2,733.8,147z M494.1,153.3l-1.2-1.6h-76l-1.4,5.2
		c24.8,0,49.2,0.1,73.6-0.2C490.8,156.8,492.5,154.5,494.1,153.3L494.1,153.3z M483.4,104.5H433c-0.5,1.8-0.8,3.5-1.3,5.6H483
		C483.2,107.8,483.2,106.3,483.4,104.5z M736.2,133.5l1,1.3c6.7,0,13.3,0.3,20-0.1c11.9-0.5,24.1,2.2,36.1-3.8
		c-18,0-35.3-0.1-52.7,0.1C739.2,131.1,737.7,132.7,736.2,133.5L736.2,133.5z M360.9,171l2.1-0.1c3.2-9.8,6.4-19.5,9.6-29.2
		c-9,1.9-11.5,8.5-12.3,16.1C359.9,162.1,360.6,166.6,360.9,171z M340.7,103.9l-0.9-1.2c-13.7,0-27.4,0-41,0.1c-1.5,0-3,1-4.5,1.5
		c0.2,0.6,0.4,1.1,0.5,1.7c14.3,0,28.5,0,42.8-0.1C338.6,105.9,339.7,104.6,340.7,103.9z M863.1,133.8c4-12.7,7.9-25.4,11.3-36.3
		l-13.5,12.9C865.6,117.1,865.2,125.3,863.1,133.8z M495.8,151.2l-0.3,0.5l4.3,0.9c-0.7,2-1.3,3.6-1.8,4.9l8.8,2.2
		c0.8-2.9,1.5-5.7,2.3-8.5H495.8z"/>
	<path fill="#FFFFFF" d="M219.5,7c2.5,1.2,5,2.3,7.5,3.6c1,0.5,2.3,1,2.9,1.9c5.9,8.8,14.7,15.6,17.7,26.4c2.1,7.7,1,15.1-1.5,22.4
		c-7,20.4-14.1,40.7-21.1,61.1c-6.5,18.9-13,37.7-19.5,56.6c-4,11.6-17.2,19.2-26.6,19.2c-42.6,0-85.3,0.2-127.9-0.2
		c-8.7,0-16.9-4.3-21.8-11.6c-1-1.8-1.8-3.6-2.5-5.6c-0.9,0.1-1.8,0-2.6-0.4c-5.5-3.5-8.2-8.9-9.5-15.1c-0.4-1.7-0.8-3.5-1.2-5.2v-3
		c1.5-6.6,2.5-13.3,4.6-19.7c4.7-14.1,10.1-28,15-42C41.4,71.7,49.4,48,57.6,24.5c1.8-5.6,5.8-10.3,11-13c2.7-1.4,5.2-3,7.8-4.5
		H219.5z M172.2,70c-17.3,0-35.3,0-53.2,0.1c-1.4,0-2.8,0.7-3.7,1.8c-2.6,4.5-4.8,9.1-6.7,13.9c-3.8,9.8-7.2,19.8-10.6,29.8
		c-2.2,6.3-4.2,12.7-6.4,19.4c16.3,0,31.9,0,47.5,0c7.3,0,9.9-1.8,12.2-8.6c5.6-16.1,11-32.3,16.6-48.3
		C168.9,75.4,170.6,72.9,172.2,70z M226,18.8c0.1-0.8,0.2-1.7,0.3-2.5c-4.9-1.2-9.7-3.4-14.6-3.4c-42.7-0.3-85.3-0.3-128,0
		c-9.3,0-16.8,4.7-20.2,13.7C56.5,45.6,50,64.8,43.2,84c-5.9,16.6-12.1,33-17.6,49.6c-2.8,8-4.7,16.2-5.9,24.6
		c-0.8,5.8,1.6,11.6,6.3,15.1c0.2-2.2,0.4-3.5,0.4-4.7c-0.3-10.8,1.3-21.1,5.8-31.1c2.8-6.1,4.8-12.6,7-19
		c4.6-13.3,9-26.6,13.5-39.9c4.1-12,8.8-23.9,12.4-36.1c5-16.5,15.9-24.7,33-24.5c24.2,0.3,48.5,0.3,72.7,0.4
		c11.3,0.1,22.5,0.2,33.8,0.2C211.8,18.8,218.9,18.8,226,18.8L226,18.8z M90.8,146.1c0.6,0.3,0.8,0.6,1.1,0.6c19,0.1,38,0.2,57,0.1
		c5.7-0.1,10.3-1.8,12.5-8.3c6.3-19.2,13.2-38.1,19.8-57.2c1.1-3.4,1.6-7,2.4-10.8c-4.3-0.4-6.7-0.1-8,3.7
		c-6,18.1-12.3,36-18.4,54.1c-2.9,8.4-7.1,12.2-16,12.3c-16.8,0.3-33.6,0.1-50.4,0.1L90.8,146.1z"/>
	<path fill="none" d="M1057.9,12.8c-8.3,4.6-13.5,11.9-16.6,20.9c-3.6,10.3-7.5,20.5-11,30.9c-0.8,2.3-0.4,5-0.6,7.9
		c-2.6-4.9-8.3-6.5-10.6-12.5c-2.9-7.5-10.7-10.6-18.4-10.6c-31.7-0.3-63.3-0.3-95,0c-5.5,0-11.3,1.5-14.9,6.6
		c-1.1,1.6-1.7,3.5-1.8,5.4c-0.8-8.1-0.9-16.4-2.7-24.4c-2-9.2-9.9-12.9-18-16.1c-9.1-3.6-18.4-2-27.6-2.1c-37.7-0.3-75.3,0-113-0.2
		c-7.2,0-10.2,2.7-12.3,8.8c-8.8,25.7-18.1,51.3-27.2,76.9c-6.6,18.7-13.2,37.4-19.8,56.1c-2,5.7-3.9,11.5-6.2,17.1
		c-0.5,1.2-2.4,1.8-3.7,2.6l-1.2-1.2c2.9-8.3,5.8-16.6,8.7-24.9c6.9-19.6,13.8-39.1,20.6-58.7c0.9-2.6,0.8-5.6,1.6-8.3
		c5.3-16.9,10.6-33.7,16.1-50.5c2.2-6.8,5-13.4,7-20.2c0.8-2.8,1.9-3.8,4.7-3.8c44.5,0.1,89-0.1,133.5,0.2c9,0,16.5,5.3,24.3,9.3
		c0.7,0.4,1.5,0.6,2.3,0.6c-3.1-7.5-9.3-11.5-16.6-14.1c-1.4-0.5-2.7-1-4.1-1.6"/>
	<path fill="#FFFFFF" d="M1211.3,177.6c-2.9,5.2-5.9,10.5-8.8,15.8c-0.4,0.8-0.4,1.6,0,2.4c3.2,4.1,2.2,8.4,0.8,12.8
		c-0.4,0.9-0.4,2-0.1,2.9c3.9,7.9-2.8,12.4-6,17.8c-1.1,1.8-5.4,3.7-6.8,2.9c-3.6-2-2.3-6.2,0-8.1c8-6.6,7.4-14.4,2.3-21.5
		c-11.3-15.8-1.8-28.7,4.4-42.3c0.8-1.6,1.1-3.4,0.8-5.1l-4,3.2c-1.7-5,3.3-4.9,4.6-7.6c-0.7-1.3-1.6-2.7-2.6-4.5
		c5.5,1.4,5.5,1.4,9.8-6.1c-2.2-3.5-4.5-6.9-6.5-10.4c-0.6-1.3-0.9-2.8-0.7-4.3c0.7-4.2,1.6-8.3,2.4-12c-2.4,1.4-5.1,4.3-7.1,3.9
		c-4.1-0.9-7.9-3.6-13-6.2c6.2-3.4,6.8-11,14.5-11.1c2.2,0,4.1-3.7,6.6-4.8c2-0.9,5.1-1.3,6.9-0.3c5,2.6,7.8,0.7,10.2-3.4
		c-3.9-7.8-3.2-11.6,2.9-14.7c3.6-1.8,13.5,2.1,14.3,5.9c0.3,1.8-0.5,4-1.3,5.8c-0.7,1.6-2.9,2.9-2.9,4.4s2.4,4.4,2.6,4.3
		c6.3-3,11.3,0.8,16.9,2.4c3.9,1.1,8.1,0.7,11.2,4.1c0.4,0.4,1.9-0.1,2.7-0.4c5.3-1.9,10.6-3.8,16.4-6l-9.7-1.1l0.1-1.9l11.6-0.7
		l-4.8-5.3c2.2-0.5,5.5-0.3,7.2-1.9c1.8-1.8,2.1-5.1,2.9-7.4c1.5,2.1,2.8,5.9,5.1,6.5c2.5,0.7,5.9-1.3,8.6-2.1
		c-0.3,1.9-0.5,4-0.8,6.1l7.9-3l-1.8,6.5l7.3-0.5c-0.4,3.5-8,4.7-3.6,9c1.3,1.3,6.4,0.1,8.6-1.5c1.3-1,0.5-4.9-0.1-7.6
		c0.2-7.3,7-8.6,11.8-12.6c1.8,2,4,3.9,5.5,6.2s1.9,4.9-1,6.9c-4.5,3.2-4.1,8.7,1.2,10.8c5.4,2.2,9.4,5.4,10.7,11.3
		c0.2,0.8,0.8,1.7,0.7,2.3c-1.8,6-3.4,12-5.6,17.9c-0.6,1.6-3.1,2.4-5.8,4.3c1.5,5.5,7.5,12.1,3.9,20.1c-3.2,6.9-6.7,13.7-10,20.4
		c7,9,12.8,18.3,16.2,29.3c2.1,7,2.1,10.2-5.1,13.6c-4.3,2-7.9,2.3-13.6,1.9c2.6-2.3,4.2-3.7,5.8-5.1c2.7-2.5,4.5-4.8,1.4-8.7
		c-5.8-7.1-10.9-14.6-16.4-21.8c-2.2-2.9-3.1-5.8-1.7-9.3c0.6-2,1.1-4,1.4-6c-6.4,3.6-8,7.2-6.7,12.6c0.4,2,0.6,3.9,0.6,5.9
		c0.6,7.1,1.2,14.2,2,21.3c0.3,2.9,0.4,5-3.6,5.6s-7.7,2.5-11.6,3.7c-1.5,0.3-3,0.5-4.6,0.5c0-1-0.1-1.6,0-1.6
		c7.8-4.1,7.8-11,6.6-18.3c-1.2-7.5-2.6-15-3.8-22.5c-0.2-1.5,0.1-2.9,0.8-4.2c4.3-8.4,9.4-16.4,13.1-25.1
		c2.2-5.4,4.2-11.6,0.2-17.6c-0.7-1.1-0.6-2.8-0.9-4.2c-0.4-2.4-0.8-4.8-1.4-8.3c-3.4,2.2-6,3.2-7.7,5c-4.1,4.4-7.7,2.1-11.1-0.5
		s-5.5-6.7-10.9-6.4c-1.3,0.1-2.8-4.7-4.6-7.9c0.4-0.1-0.5,0-1.3,0.2c-7.9,2.9-16.3,4-24.7,3.3c-2.3-0.2-4.1,0.4-5.1,3.3
		c-1.5,4.4-6.9,7-6.2,13c0.1,1.1-4.4,2.7-7.1,4.3c0.5,1.3,1.1,2.5,1.9,3.6c2.3,2.9,2.7,5.9,2.3,9.7c-1.2,11.7-1.4,23.6-2.8,35.3
		c-0.6,5.6-3.1,11-4.4,16.6c-1.6,7.1-3.7,14.2-3.8,21.4c0,2.7,4.8,5.6,7.6,8.3c1.1,0.8,2.3,1.5,3.6,1.9l-0.4,1.7
		c-3.8-0.4-7.6-0.7-11.4-1.2c-1.1-0.1-2.2-0.9-3.3-0.9c-5.9,0-6.5-1-5.6-6.9c0.4-3.5,0.5-7.1,0.2-10.7c-0.5-12.1-1.2-24.2-1.8-36.3
		L1211.3,177.6z M1297,115.6l1.6-0.7c-0.6-2-1.1-4-1.7-6l-6.8,4.2L1297,115.6z"/>
	<path fill="none" d="M1002.4,178.3c5.5-15.5,11-31,16.3-46.5c4.6-13.6,9.2-27.2,13.4-40.9c1-3.2,0.1-6.9,0.6-10.2
		c0.6-4.7,1.6-9.3,3.1-13.9c3.7-11,7.6-21.9,11.9-32.7c5.5-13.9,16.5-21.1,30.8-21.2c50.5-0.4,100.9-0.2,151.4-0.1
		c0.5,0.1,0.9,0.3,1.3,0.5c-0.2,1.4-0.3,2.9-0.5,4.6l3.8,0.5v0.4c-0.6,0.1-1.2,0.2-1.7,0.3c-48.3-0.1-96.5-0.3-144.8-0.2
		c-16.2,0-30.7,10.2-36.3,25.5c-5.6,15.2-10.7,30.5-16.2,45.7c-10.7,29.6-21.4,59.1-32.2,88.6L1002.4,178.3z"/>
	<path fill="none" d="M512.9,179.6h-6.2c-0.1-1-0.1-1.9,0-2.9c6.4-18,13-35.9,19.3-54c7-20.3,13.9-40.6,20.5-61
		c1.5-4.5,3.3-6.5,8.6-6.5c33.2,0.3,66.3,0,99.5,0.3c4.5,0,9,2.1,13.4,3.2l-0.3,1.9c-1.3,0.1-2.7,0.4-4,0.4l-100-0.1
		c-7.7,0-9.2,1-11.8,8.5c-8.8,25-17.6,50-26.4,75.1C521.4,156.2,517.2,167.7,512.9,179.6z"/>
	<path fill="none" d="M1011.8,61c-17.6,0-35.3,0-52.9,0c-12,0-24,0-36,0.1c-19.1,0.1-25.7,4.9-31.8,22.9
		c-3.6,10.6-7.2,21.2-10.9,31.8c-6.3,18.4-12.6,36.7-18.9,55.1c-0.2,0.6-0.6,1.1-1.4,2.8c-2.5-5-3.3-9.4-2.2-13.9
		c1.4-6,3.1-11.9,5.1-17.6c6.5-18.7,13.1-37.3,19.7-55.9c2.3-6.4,4.4-12.9,6.8-19.3c2.6-6.9,9.2-11.4,16.6-11.5
		c31.3,0,62.7-0.1,94,0.2c4.2,0,8.3,2.3,12.5,3.5C1012.2,59.7,1012,60.4,1011.8,61z"/>
	<path fill="none" d="M213.1,178.7c4.8-13.5,9.6-26.7,14.3-40c9.4-26.6,18.6-53.2,28-79.8c0.5-1.5,2.9-3.4,4.4-3.4
		c32.8-0.2,65.6-0.2,98.4,0.1c4.1,0,8.2,2.3,12.3,3.5l-0.3,1.8h-13.7c-28.3,0-56.6,0-84.9-0.1c-7.7,0-10.5,2.5-13,9.7
		c-5.6,16.5-11.7,32.9-17.5,49.3c-2.9,8.3-5.7,16.7-8.6,25c-3.5,10.2-7.1,20.4-10.6,30.6C220.3,180.2,217.3,180.6,213.1,178.7z"/>
	<path fill="none" d="M514.8,60.9h-7.2c-30,0-60,0.1-89.9,0c-8.7,0-21.3,6.5-22.4,16.7c-0.1,1.3-1.5,2.4-2.3,3.8
		c-0.9-2.7-1.6-5-2.5-7.2c-1.8-4.5,1.8-13.5,7.1-16.2c2.9-1.5,6.2-2.4,9.5-2.5c31.6-0.2,63.3-0.2,94.9,0.1c4.5,0,8.9,2.2,13.3,3.3
		L514.8,60.9z"/>
	<path fill="none" d="M913.7,157c0.2-4.5,2.1-6,6.1-5.9c9.2,0.2,18.3,0.1,27.5,0.1c6.8,0,10.7-2.9,12.9-9.4
		c3.9-11.6,8.1-23.1,11.7-34.8c1.5-5,4.6-4.6,9-4c-1.8,5.3-3.3,10.3-5,15.2c-3.8,11.1-7.7,22.1-11.4,33.2c-1.3,3.8-3.3,5.8-7.8,5.7
		C942.3,156.8,928.2,157,913.7,157z"/>
	<path fill="none" d="M602.2,179c8.5-24.3,16.9-48,24.9-71.9c1.7-5.1,4.6-5,9.1-4l-9.4,27.3c-5.2,15.1-10.4,30.2-15.6,45.3
		C609.7,180.3,606.6,180.5,602.2,179z"/>
	<path fill="none" d="M824.7,70.5c-2.5,8.6-2.5,8.9-11.4,9c-18.5,0.3-37,0.2-55.5,0.3c-0.3,0-0.5-0.3-1.1-0.7
		c0.2-3.5,1.6-5.4,5.7-5.4c15.3,0,30.6-0.1,46-0.3c2.1-0.1,4.2-0.9,5.8-2.3h-54.1v-0.5H824.7z"/>
	<path fill="none" d="M733.8,147c0-4.7,1.6-6.1,5.8-6.1c14,0.2,28,0,42-0.2c5.6,0.1,10.8-2.7,13.9-7.4c1-1.4,4.2-1.3,6.4-2
		c0.2,1.8,1,3.7,0.5,5.2c-3.3,9.2-5.3,10.4-14.9,10.4c-16.2,0-32.3,0-48.5,0H733.8z"/>
	<path fill="none" d="M494.1,153.3c-1.7,1.2-3.3,3.5-5,3.5c-24.4,0.2-48.8,0.2-73.6,0.2l1.4-5.3h76L494.1,153.3z"/>
	<path fill="none" d="M483.4,104.5c-0.1,1.8-0.2,3.3-0.3,5.6h-51.4c0.5-2.1,0.9-3.7,1.3-5.6H483.4z"/>
	<path fill="none" d="M736.2,133.6c1.5-0.9,3-2.4,4.4-2.4c17.3-0.2,34.6-0.1,52.7-0.1c-12,6.1-24.2,3.3-36.1,3.8
		c-6.6,0.3-13.3,0.1-20,0.1L736.2,133.6z"/>
	<path fill="none" d="M360.9,171c-0.2-4.4-1-8.9-0.6-13.2c0.8-7.5,3.3-14.2,12.3-16.1c-3.2,9.7-6.4,19.4-9.6,29.2L360.9,171z"/>
	<path fill="none" d="M340.7,103.9c-1,0.7-2.1,2-3.1,2c-14.3,0.1-28.5,0.1-42.8,0.1c-0.2-0.6-0.4-1.1-0.5-1.7c1.5-0.5,3-1.5,4.5-1.5
		c13.7-0.1,27.4-0.1,41-0.1L340.7,103.9z"/>
	<path fill="none" d="M226,18.8c-7.1,0-14.2,0-21.3,0c-11.3,0-22.5-0.1-33.8-0.2c-24.2-0.1-48.5-0.1-72.7-0.4
		c-17.1-0.2-28,8-32.9,24.4c-3.7,12.2-8.3,24-12.4,36.1c-4.5,13.3-9,26.6-13.5,39.9c-2.2,6.4-4.2,12.9-7,19
		c-4.6,9.9-6.1,20.3-5.8,31.1c0,1.2-0.2,2.5-0.4,4.7c-4.7-3.5-7.1-9.3-6.3-15.1c1.1-8.4,3.1-16.6,5.9-24.5
		C31.2,117,37.4,100.6,43.2,84C50,64.8,56.5,45.5,63.6,26.5c3.3-9,10.9-13.6,20.2-13.7c42.7-0.3,85.3-0.3,128,0
		c4.9,0,9.7,2.2,14.6,3.4C226.2,17.1,226.1,17.9,226,18.8z"/>
	<path fill="none" d="M90.8,146.1v-5.3c16.9,0,33.7,0.2,50.5-0.1c8.9-0.1,13.1-3.9,16-12.3c6.1-18,12.4-36,18.4-54.1
		c1.3-3.8,3.7-4.2,8-3.7c-0.8,3.8-1.3,7.4-2.4,10.7c-6.5,19.1-13.4,38.1-19.8,57.2c-2.1,6.5-6.8,8.3-12.5,8.3c-19,0.1-38,0-57-0.1
		C91.7,146.7,91.5,146.4,90.8,146.1z"/>
	<path fill="none" d="M1297,115.6l-7-2.5l6.8-4.2c0.6,2,1.2,4,1.7,6L1297,115.6z"/>
</g>
</svg>
