<?xml version="1.0" encoding="UTF-8" standalone="no"?>
<!-- Generator: Adobe Illustrator 15.1.0, SVG Export Plug-In  -->
<!-- 2026-07-13: 원본 "PC-8800シリーズ" 로고에서 "PC-88"만 남기고 크롭
     (뒤의 00+シリーズ 글리프 path 5개 제거, viewBox 1362.6→560).
     캐러셀에서 가로로 너무 길게 나오던 문제 - pc98.svg("PC-98"만 크롭)와
     같은 처리. -->

<svg
   xmlns:dc="http://purl.org/dc/elements/1.1/"
   xmlns:cc="http://creativecommons.org/ns#"
   xmlns:rdf="http://www.w3.org/1999/02/22-rdf-syntax-ns#"
   xmlns:svg="http://www.w3.org/2000/svg"
   xmlns="http://www.w3.org/2000/svg"
   xmlns:sodipodi="http://sodipodi.sourceforge.net/DTD/sodipodi-0.dtd"
   xmlns:inkscape="http://www.inkscape.org/namespaces/inkscape"
   version="1.1"
   x="0px"
   y="0px"
   width="560"
   height="160.89214"
   viewBox="-14.625 -9 560 160.89214"
   enable-background="new -14.625 -9 1386 180"
   xml:space="preserve"
   id="svg36"
   sodipodi:docname="pc88.svg"
   inkscape:version="0.92.2 (unknown)"><metadata
     id="metadata40"><rdf:RDF><cc:Work
         rdf:about=""><dc:format>image/svg+xml</dc:format><dc:type
           rdf:resource="http://purl.org/dc/dcmitype/StillImage" /><dc:title></dc:title></cc:Work></rdf:RDF></metadata><sodipodi:namedview
     pagecolor="#ffffff"
     bordercolor="#666666"
     borderopacity="1"
     objecttolerance="10"
     gridtolerance="10"
     guidetolerance="10"
     inkscape:pageopacity="0"
     inkscape:pageshadow="2"
     inkscape:window-width="1920"
     inkscape:window-height="1031"
     id="namedview38"
     showgrid="false"
     inkscape:pagecheckerboard="true"
     fit-margin-top="0"
     fit-margin-left="0"
     fit-margin-right="0"
     fit-margin-bottom="0"
     inkscape:zoom="0.78787879"
     inkscape:cx="813.59762"
     inkscape:cy="12.392135"
     inkscape:window-x="0"
     inkscape:window-y="0"
     inkscape:window-maximized="1"
     inkscape:current-layer="svg36" /><defs
     id="defs2" /><path
     d="m 433.689,-7.235 c 35.151,-4.551 65.75,23.095 54.993,58.993 -1.682,5.614 -11.307,17.615 -11.307,17.615 0,0 14.699,13.6 16.307,22.38 6.706,36.626 -20.935,58.203 -48.994,58.992 -29.72,0.838 -62.426,-19.279 -55.993,-56.992 0.87,-5.1 4.273,-9.96 6,-12.999 1.74,-3.063 9.931,-11.381 9.931,-11.381 0,0 -10.901,-17.317 -11.931,-24.614 -3.761,-26.653 12.136,-48.258 40.994,-51.994 z m -6.999,44.026 c 0,19.225 28.997,18.975 28.997,0.968 0,-20.368 -28.997,-20.618 -28.997,-0.968 z m 14.989,83.957 c 22.679,0 22.8,-33.995 -0.388,-33.995 -23.261,0 -22.656,33.995 0.388,33.995 z"
     id="path4"
     inkscape:connector-curvature="0"
     style="clip-rule:evenodd;fill-rule:evenodd;fill:#ffffff;fill-opacity:1" /><path
     d="m 321.186,-7.235 c 35.151,-4.551 65.75,23.095 54.993,58.993 -1.682,5.614 -11.307,17.615 -11.307,17.615 0,0 14.699,13.6 16.307,22.38 6.706,36.626 -20.935,58.203 -48.994,58.992 -29.72,0.838 -62.426,-19.279 -55.993,-56.992 0.87,-5.1 4.273,-9.96 6,-12.999 1.74,-3.063 9.931,-11.381 9.931,-11.381 0,0 -10.901,-17.317 -11.931,-24.614 -3.762,-26.653 12.135,-48.258 40.994,-51.994 z m -7,44.026 c 0,19.225 28.997,18.975 28.997,0.968 0,-20.368 -28.997,-20.618 -28.997,-0.968 z m 14.989,83.957 c 22.679,0 22.8,-33.995 -0.388,-33.995 -23.261,0 -22.656,33.995 0.388,33.995 z"
     id="path6"
     inkscape:connector-curvature="0"
     style="clip-rule:evenodd;fill-rule:evenodd;fill:#ffffff;fill-opacity:1" /><path
     d="M 184.72,-5.976 V 25 C 99.782,2.167 100.352,139.5 183.58,116.754 V 147.75 C 54.73,180 54.16,-35.667 184.72,-5.976 Z"
     id="path12"
     inkscape:connector-curvature="0"
     style="clip-rule:evenodd;fill-rule:evenodd;fill:#ffffff;fill-opacity:1" /><path
     d="m 25.631,87 0.108,-30.918 c 15.01,0 23.997,-5.203 23.997,-16.088 0,-9 -1.487,-17.866 -31.862,-17.866 L 17.999,150.75 H -14.625 L -14.255,-9 17.25,-8.997 C 77.75,-8.791 84.875,15.5 84.875,38.994 84.875,72.755 61.25,87 25.631,87 Z"
     id="path14"
     inkscape:connector-curvature="0"
     style="clip-rule:evenodd;fill-rule:evenodd;fill:#ffffff;fill-opacity:1" /><polygon
     points="776.273,41.76 776.273,11.683 846.265,11.764 846.265,41.76 "
     id="polygon16"
     style="clip-rule:evenodd;fill-rule:evenodd;fill:#ffffff;fill-opacity:1"
     transform="translate(-14.625,-9)" /><polygon
     points="926.255,81.754 926.255,11.683 958.25,11.683 958.25,81.754 "
     id="polygon20"
     style="clip-rule:evenodd;fill-rule:evenodd;fill:#ffffff;fill-opacity:1"
     transform="translate(-14.625,-9)" /><polygon
     points="776.273,57.933 846.265,57.891 846.265,87.756 776.273,87.754 "
     id="polygon26"
     style="clip-rule:evenodd;fill-rule:evenodd;fill:#ffffff;fill-opacity:1"
     transform="translate(-14.625,-9)" /><rect
     x="185.72"
     y="60.755997"
     width="77.989998"
     height="23.997"
     id="rect28"
     style="clip-rule:evenodd;fill-rule:evenodd;fill:#ffffff;fill-opacity:1" /><polygon
     points="1051.239,99.752 1051.239,70.756 1176.224,70.756 1176.224,99.752 "
     id="polygon30"
     style="clip-rule:evenodd;fill-rule:evenodd;fill:#ffffff;fill-opacity:1"
     transform="translate(-14.625,-9)" /><circle
     cx="1302.0811"
     cy="15.114"
     r="13.032"
     id="circle32"
     style="clip-rule:evenodd;fill:#ffffff;fill-rule:evenodd;fill-opacity:1" /><circle
     cx="1334.943"
     cy="15.114"
     r="13.032"
     id="circle34"
     style="clip-rule:evenodd;fill:#ffffff;fill-rule:evenodd;fill-opacity:1" /></svg>