<?xml version="1.0" encoding="UTF-8"?>
<!-- Wikimedia Commons "PC9800 logo 1982.svg"에서 "PC-98" 부분만 잘라 씀
     (https://upload.wikimedia.org/wikipedia/commons/7/79/PC9800_logo_1982.svg,
     원본은 "PC-9800シリーズ" 전체 - 뒤의 "00シリーズ" 부분은 잘라냄, 2026-07-06).
     흰색 채우기로 통일해서 다른 로고들처럼 ImageComponent colorShift 틴트가 적용되게 함. -->
<svg xmlns="http://www.w3.org/2000/svg" width="530" height="180" viewBox="-14.625 -9 530 180"><path fill-rule="evenodd" clip-rule="evenodd" d="M40.256,96l0.108-30.918c15.01,0,23.997-5.203,23.997-16.088
	c0-9-1.487-17.866-31.862-17.866l0.125,128.622H0L0.37,0l31.505,0.003C92.375,0.209,99.5,24.5,99.5,47.994
	C99.5,81.755,75.875,96,40.256,96z" fill="#FFFFFF"/><path fill-rule="evenodd" clip-rule="evenodd" d="M199.345,3.024V34c-84.938-22.833-84.368,114.5-1.14,91.754v30.996
	C69.355,189,68.785-26.667,199.345,3.024z" fill="#FFFFFF"/><rect x="200.345" y="69.756" fill-rule="evenodd" clip-rule="evenodd" width="77.99" height="23.997" fill="#FFFFFF"/><path fill-rule="evenodd" clip-rule="evenodd" d="M351.375,159.77h-36.5l29.533-59.521c-7.981,0-30.033-4.249-38.076-11.495
	c-10.428-9.395-18.869-28.396-12.999-50.994c6.481-24.946,34.497-43.741,64.992-35.996c21.805,5.539,34.549,16.485,38.299,40.376
	c1.727,11.003,1.013,21.703-6.193,37.881L351.375,159.77z M324.33,52.758c0,25.899,39.995,26.614,39.995,1
	C364.325,27.016,324.33,26.766,324.33,52.758z" fill="#FFFFFF"/><path fill-rule="evenodd" clip-rule="evenodd" d="M448.314,1.765c35.151-4.551,65.75,23.095,54.993,58.993
	C501.625,66.372,492,78.373,492,78.373s14.699,13.6,16.307,22.38c6.706,36.626-20.935,58.203-48.994,58.992
	c-29.72,0.838-62.426-19.279-55.993-56.992c0.87-5.1,4.273-9.96,6-12.999c1.74-3.063,9.931-11.381,9.931-11.381
	s-10.901-17.317-11.931-24.614C403.559,27.106,419.456,5.501,448.314,1.765z M441.315,45.791c0,19.225,28.997,18.975,28.997,0.968
	C470.312,26.391,441.315,26.141,441.315,45.791z M456.304,129.748c22.679,0,22.8-33.995-0.388-33.995
	C432.655,95.753,433.26,129.748,456.304,129.748z" fill="#FFFFFF"/></svg>
