<?xml version="1.0" encoding="UTF-8"?>
<!-- "SCREENSHOTS" 워드마크 - retropangui-slate 자체 폰트(Pretendard-Bold)의
     글리프 윤곽선을 fontTools로 직접 벡터 패스 추출해서 만듦(2026-07-06).
     ES의 SVG 렌더러(nanosvg)가 <text> 요소를 지원 안 해서 다른 로고들처럼
     패스로만 구성. 흰색 채우기로 ImageComponent의 colorShift 곱연산
     틴트가 정상 적용되게 함. -->
<svg xmlns="http://www.w3.org/2000/svg" width="14842" height="1488" viewBox="0 0 14842 1488">
  <g fill="#FFFFFF" transform="matrix(1,0,0,-1,0,1468)">
    <path transform="translate(0,0)" d="M658 1216Q583 1216 529.5 1194.5Q476 1173 448.0 1135.0Q420 1097 420 1048Q420 978 483.0 936.0Q546 894 652 870L782 838Q983 793 1099.5 689.5Q1216 586 1216 414Q1216 281 1149.0 183.5Q1082 86 956.0 33.0Q830 -20 656 -20Q480 -20 350.5 34.0Q221 88 149.5 193.5Q78 299 74 452H366Q373 345 450.5 288.5Q528 232 652 232Q730 232 789.0 255.0Q848 278 880.0 319.0Q912 360 912 414Q912 484 851.5 525.0Q791 566 664 598L506 636Q112 733 112 1030Q112 1160 182.5 1259.5Q253 1359 378.0 1413.5Q503 1468 660 1468Q818 1468 939.0 1413.0Q1060 1358 1127.0 1259.5Q1194 1161 1196 1034H908Q899 1120 833.0 1168.0Q767 1216 658 1216Z"/>
    <path transform="translate(1290,0)" d="M774 1202Q661 1202 576.5 1145.5Q492 1089 446.0 981.5Q400 874 400 724Q400 571 446.0 463.5Q492 356 576.0 301.0Q660 246 772 246Q897 246 982.5 312.0Q1068 378 1090 494L1394 492Q1377 355 1297.0 238.0Q1217 121 1081.0 50.5Q945 -20 768 -20Q573 -20 420.0 68.5Q267 157 180.5 325.0Q94 493 94 724Q94 954 181.5 1122.5Q269 1291 422.5 1379.5Q576 1468 768 1468Q935 1468 1070.0 1406.0Q1205 1344 1289.5 1225.5Q1374 1107 1394 944H1090Q1078 1023 1035.0 1081.5Q992 1140 925.0 1171.0Q858 1202 774 1202Z"/>
    <path transform="translate(2772,0)" d="M122 1448H690Q853 1448 969.5 1390.0Q1086 1332 1147.0 1225.5Q1208 1119 1208 976Q1208 828 1142.0 722.0Q1076 616 952 563L1260 0H928L651 514H422V0H122ZM634 758Q898 758 898 976Q898 1087 832.0 1144.5Q766 1202 634 1202H422V758Z"/>
    <path transform="translate(4066,0)" d="M122 1448H1094V1200H422V848H1044V600H422V248H1096V0H122Z"/>
    <path transform="translate(5272,0)" d="M122 1448H1094V1200H422V848H1044V600H422V248H1096V0H122Z"/>
    <path transform="translate(6478,0)" d="M1330 0H1070L434 920H422V0H122V1448H386L1018 528H1032V1448H1330Z"/>
    <path transform="translate(7930,0)" d="M658 1216Q583 1216 529.5 1194.5Q476 1173 448.0 1135.0Q420 1097 420 1048Q420 978 483.0 936.0Q546 894 652 870L782 838Q983 793 1099.5 689.5Q1216 586 1216 414Q1216 281 1149.0 183.5Q1082 86 956.0 33.0Q830 -20 656 -20Q480 -20 350.5 34.0Q221 88 149.5 193.5Q78 299 74 452H366Q373 345 450.5 288.5Q528 232 652 232Q730 232 789.0 255.0Q848 278 880.0 319.0Q912 360 912 414Q912 484 851.5 525.0Q791 566 664 598L506 636Q112 733 112 1030Q112 1160 182.5 1259.5Q253 1359 378.0 1413.5Q503 1468 660 1468Q818 1468 939.0 1413.0Q1060 1358 1127.0 1259.5Q1194 1161 1196 1034H908Q899 1120 833.0 1168.0Q767 1216 658 1216Z"/>
    <path transform="translate(9220,0)" d="M122 1448H422V848H1050V1448H1352V0H1050V600H422V0H122Z"/>
    <path transform="translate(10694,0)" d="M772 -20Q578 -20 424.0 69.0Q270 158 182.0 326.5Q94 495 94 724Q94 954 182.0 1122.5Q270 1291 424.0 1379.5Q578 1468 772 1468Q965 1468 1118.5 1379.5Q1272 1291 1360.0 1122.5Q1448 954 1448 724Q1448 494 1360.0 325.5Q1272 157 1118.5 68.5Q965 -20 772 -20ZM772 1202Q659 1202 575.5 1146.5Q492 1091 446.0 983.5Q400 876 400 724Q400 572 446.0 464.5Q492 357 575.5 301.5Q659 246 772 246Q885 246 968.0 301.5Q1051 357 1096.5 464.0Q1142 571 1142 724Q1142 877 1096.5 984.0Q1051 1091 968.0 1146.5Q885 1202 772 1202Z"/>
    <path transform="translate(12236,0)" d="M66 1448H1252V1200H808V0H510V1200H66Z"/>
    <path transform="translate(13552,0)" d="M658 1216Q583 1216 529.5 1194.5Q476 1173 448.0 1135.0Q420 1097 420 1048Q420 978 483.0 936.0Q546 894 652 870L782 838Q983 793 1099.5 689.5Q1216 586 1216 414Q1216 281 1149.0 183.5Q1082 86 956.0 33.0Q830 -20 656 -20Q480 -20 350.5 34.0Q221 88 149.5 193.5Q78 299 74 452H366Q373 345 450.5 288.5Q528 232 652 232Q730 232 789.0 255.0Q848 278 880.0 319.0Q912 360 912 414Q912 484 851.5 525.0Q791 566 664 598L506 636Q112 733 112 1030Q112 1160 182.5 1259.5Q253 1359 378.0 1413.5Q503 1468 660 1468Q818 1468 939.0 1413.0Q1060 1358 1127.0 1259.5Q1194 1161 1196 1034H908Q899 1120 833.0 1168.0Q767 1216 658 1216Z"/>
  </g>
</svg>
